solid CATIA STL
  facet normal  0.000000e+000  0.000000e+000  1.000000e+000
    outer loop
      vertex  5.768361e+000  7.323164e+001  2.500000e+000
      vertex  4.150000e+000  7.350000e+001  2.500000e+000
      vertex  3.813173e+000  7.268683e+001  2.500000e+000
    endloop
  endfacet
  facet normal  0.000000e+000  0.000000e+000  1.000000e+000
    outer loop
      vertex  3.473164e+001  7.323164e+001  2.500000e+000
      vertex  3.473164e+001  6.545573e+001  2.500000e+000
      vertex  3.750000e+001  7.485000e+001  2.500000e+000
    endloop
  endfacet
  facet normal  0.000000e+000  0.000000e+000  1.000000e+000
    outer loop
      vertex  3.473164e+001  7.323164e+001  2.500000e+000
      vertex  3.750000e+001  7.485000e+001  2.500000e+000
      vertex  3.000000e+000  7.465000e+001  2.500000e+000
    endloop
  endfacet
  facet normal  0.000000e+000  0.000000e+000  1.000000e+000
    outer loop
      vertex  3.473164e+001  7.323164e+001  2.500000e+000
      vertex  3.000000e+000  7.465000e+001  2.500000e+000
      vertex  3.813173e+000  7.431317e+001  2.500000e+000
    endloop
  endfacet
  facet normal  0.000000e+000  0.000000e+000  1.000000e+000
    outer loop
      vertex  3.473164e+001  7.323164e+001  2.500000e+000
      vertex  3.813173e+000  7.431317e+001  2.500000e+000
      vertex  4.150000e+000  7.350000e+001  2.500000e+000
    endloop
  endfacet
  facet normal  0.000000e+000  0.000000e+000  1.000000e+000
    outer loop
      vertex  3.473164e+001  7.323164e+001  2.500000e+000
      vertex  4.150000e+000  7.350000e+001  2.500000e+000
      vertex  5.768361e+000  7.323164e+001  2.500000e+000
    endloop
  endfacet
  facet normal  0.000000e+000  0.000000e+000  1.000000e+000
    outer loop
      vertex  4.050000e+001  6.400000e+001  2.500000e+000
      vertex  3.865000e+001  7.600000e+001  2.500000e+000
      vertex  3.831317e+001  7.518683e+001  2.500000e+000
    endloop
  endfacet
  facet normal  0.000000e+000  0.000000e+000  1.000000e+000
    outer loop
      vertex  4.050000e+001  6.400000e+001  2.500000e+000
      vertex  3.831317e+001  7.518683e+001  2.500000e+000
      vertex  3.750000e+001  7.485000e+001  2.500000e+000
    endloop
  endfacet
  facet normal  0.000000e+000  0.000000e+000  1.000000e+000
    outer loop
      vertex  4.050000e+001  6.400000e+001  2.500000e+000
      vertex  3.750000e+001  7.485000e+001  2.500000e+000
      vertex  3.473164e+001  6.545573e+001  2.500000e+000
    endloop
  endfacet
  facet normal  0.000000e+000  0.000000e+000  1.000000e+000
    outer loop
      vertex  6.000000e+000 -7.908656e-016  2.500000e+000
      vertex  4.050000e+001  6.400000e+001  2.500000e+000
      vertex  3.473164e+001  6.545573e+001  2.500000e+000
    endloop
  endfacet
  facet normal  0.000000e+000  0.000000e+000  1.000000e+000
    outer loop
      vertex  6.000000e+000 -7.908656e-016  2.500000e+000
      vertex  3.473164e+001  6.545573e+001  2.500000e+000
      vertex  5.768361e+000  1.172676e+001  2.500000e+000
    endloop
  endfacet
  facet normal  0.000000e+000  0.000000e+000  1.000000e+000
    outer loop
      vertex  6.000000e+000 -7.908656e-016  2.500000e+000
      vertex  5.768361e+000  1.172676e+001  2.500000e+000
      vertex  3.813173e+000  3.813173e+000  2.500000e+000
    endloop
  endfacet
  facet normal  0.000000e+000  0.000000e+000  1.000000e+000
    outer loop
      vertex  6.000000e+000 -7.908656e-016  2.500000e+000
      vertex  3.813173e+000  3.813173e+000  2.500000e+000
      vertex  4.150000e+000  3.000000e+000  2.500000e+000
    endloop
  endfacet
  facet normal  0.000000e+000  0.000000e+000  1.000000e+000
    outer loop
      vertex  6.000000e+000 -7.908656e-016  2.500000e+000
      vertex  4.150000e+000  3.000000e+000  2.500000e+000
      vertex  3.813173e+000  2.186827e+000  2.500000e+000
    endloop
  endfacet
  facet normal  0.000000e+000  0.000000e+000  1.000000e+000
    outer loop
      vertex  6.000000e+000 -7.908656e-016  2.500000e+000
      vertex  3.813173e+000  2.186827e+000  2.500000e+000
      vertex  3.000000e+000  1.850000e+000  2.500000e+000
    endloop
  endfacet
  facet normal  0.000000e+000  0.000000e+000  1.000000e+000
    outer loop
      vertex  6.000000e+000 -7.908656e-016  2.500000e+000
      vertex  3.000000e+000  1.850000e+000  2.500000e+000
      vertex -2.384186e-007  0.000000e+000  2.500000e+000
    endloop
  endfacet
  facet normal  0.000000e+000  0.000000e+000  1.000000e+000
    outer loop
      vertex -2.384186e-007  0.000000e+000  2.500000e+000
      vertex  3.000000e+000  1.850000e+000  2.500000e+000
      vertex  2.186827e+000  2.186827e+000  2.500000e+000
    endloop
  endfacet
  facet normal  0.000000e+000  0.000000e+000  1.000000e+000
    outer loop
      vertex -2.384186e-007  0.000000e+000  2.500000e+000
      vertex  2.186827e+000  2.186827e+000  2.500000e+000
      vertex  1.850000e+000  3.000000e+000  2.500000e+000
    endloop
  endfacet
  facet normal  0.000000e+000  -0.000000e+000  1.000000e+000
    outer loop
      vertex -2.384186e-007  0.000000e+000  2.500000e+000
      vertex  1.850000e+000  3.000000e+000  2.500000e+000
      vertex  2.186827e+000  3.813173e+000  2.500000e+000
    endloop
  endfacet
  facet normal  0.000000e+000  -0.000000e+000  1.000000e+000
    outer loop
      vertex -2.384186e-007  0.000000e+000  2.500000e+000
      vertex  2.186827e+000  3.813173e+000  2.500000e+000
      vertex  2.768361e+000  5.500000e+001  2.500000e+000
    endloop
  endfacet
  facet normal  0.000000e+000  -0.000000e+000  1.000000e+000
    outer loop
      vertex -2.384186e-007  0.000000e+000  2.500000e+000
      vertex  2.768361e+000  5.500000e+001  2.500000e+000
      vertex  2.768361e+000  6.100000e+001  2.500000e+000
    endloop
  endfacet
  facet normal  0.000000e+000  -0.000000e+000  9.999999e-001
    outer loop
      vertex -2.384186e-007  0.000000e+000  2.500000e+000
      vertex  2.768361e+000  6.100000e+001  2.500000e+000
      vertex  3.000000e+000  7.235000e+001  2.500000e+000
    endloop
  endfacet
  facet normal  0.000000e+000  0.000000e+000  1.000000e+000
    outer loop
      vertex -2.384186e-007  0.000000e+000  2.500000e+000
      vertex  3.000000e+000  7.235000e+001  2.500000e+000
      vertex  2.186827e+000  7.268683e+001  2.500000e+000
    endloop
  endfacet
  facet normal  0.000000e+000  0.000000e+000  9.999999e-001
    outer loop
      vertex -2.384186e-007  0.000000e+000  2.500000e+000
      vertex  2.186827e+000  7.268683e+001  2.500000e+000
      vertex  1.850000e+000  7.350000e+001  2.500000e+000
    endloop
  endfacet
  facet normal  0.000000e+000  0.000000e+000  1.000000e+000
    outer loop
      vertex -2.384186e-007  0.000000e+000  2.500000e+000
      vertex  1.850000e+000  7.350000e+001  2.500000e+000
      vertex -2.384186e-007  7.900000e+001  2.500000e+000
    endloop
  endfacet
  facet normal  0.000000e+000  -0.000000e+000  9.999999e-001
    outer loop
      vertex -2.384186e-007  7.900000e+001  2.500000e+000
      vertex  1.850000e+000  7.350000e+001  2.500000e+000
      vertex  2.186827e+000  7.431317e+001  2.500000e+000
    endloop
  endfacet
  facet normal  0.000000e+000  -0.000000e+000  1.000000e+000
    outer loop
      vertex -2.384186e-007  7.900000e+001  2.500000e+000
      vertex  2.186827e+000  7.431317e+001  2.500000e+000
      vertex  3.000000e+000  7.465000e+001  2.500000e+000
    endloop
  endfacet
  facet normal  0.000000e+000  -0.000000e+000  1.000000e+000
    outer loop
      vertex -2.384186e-007  7.900000e+001  2.500000e+000
      vertex  3.000000e+000  7.465000e+001  2.500000e+000
      vertex  3.750000e+001  7.715000e+001  2.500000e+000
    endloop
  endfacet
  facet normal  0.000000e+000  -0.000000e+000  1.000000e+000
    outer loop
      vertex -2.384186e-007  7.900000e+001  2.500000e+000
      vertex  3.750000e+001  7.715000e+001  2.500000e+000
      vertex  4.050000e+001  7.900000e+001  2.500000e+000
    endloop
  endfacet
  facet normal  0.000000e+000  0.000000e+000  9.999999e-001
    outer loop
      vertex  3.000000e+000  7.465000e+001  2.500000e+000
      vertex  3.750000e+001  7.485000e+001  2.500000e+000
      vertex  3.668683e+001  7.518683e+001  2.500000e+000
    endloop
  endfacet
  facet normal  0.000000e+000  0.000000e+000  1.000000e+000
    outer loop
      vertex  3.000000e+000  7.465000e+001  2.500000e+000
      vertex  3.668683e+001  7.518683e+001  2.500000e+000
      vertex  3.635000e+001  7.600000e+001  2.500000e+000
    endloop
  endfacet
  facet normal  0.000000e+000  -0.000000e+000  1.000000e+000
    outer loop
      vertex  3.000000e+000  7.465000e+001  2.500000e+000
      vertex  3.635000e+001  7.600000e+001  2.500000e+000
      vertex  3.668683e+001  7.681317e+001  2.500000e+000
    endloop
  endfacet
  facet normal  0.000000e+000  -0.000000e+000  1.000000e+000
    outer loop
      vertex  3.000000e+000  7.465000e+001  2.500000e+000
      vertex  3.668683e+001  7.681317e+001  2.500000e+000
      vertex  3.750000e+001  7.715000e+001  2.500000e+000
    endloop
  endfacet
  facet normal  -0.000000e+000  0.000000e+000  1.000000e+000
    outer loop
      vertex  4.050000e+001  7.900000e+001  2.500000e+000
      vertex  3.750000e+001  7.715000e+001  2.500000e+000
      vertex  3.831317e+001  7.681317e+001  2.500000e+000
    endloop
  endfacet
  facet normal  -0.000000e+000  0.000000e+000  1.000000e+000
    outer loop
      vertex  4.050000e+001  7.900000e+001  2.500000e+000
      vertex  3.831317e+001  7.681317e+001  2.500000e+000
      vertex  3.865000e+001  7.600000e+001  2.500000e+000
    endloop
  endfacet
  facet normal  -0.000000e+000  0.000000e+000  1.000000e+000
    outer loop
      vertex  4.050000e+001  7.900000e+001  2.500000e+000
      vertex  3.865000e+001  7.600000e+001  2.500000e+000
      vertex  4.050000e+001  6.400000e+001  2.500000e+000
    endloop
  endfacet
  facet normal  0.000000e+000  0.000000e+000  1.000000e+000
    outer loop
      vertex  2.768361e+000  6.100000e+001  2.500000e+000
      vertex  5.768361e+000  6.100000e+001  2.500000e+000
      vertex  3.000000e+000  7.235000e+001  2.500000e+000
    endloop
  endfacet
  facet normal  -0.000000e+000  0.000000e+000  1.000000e+000
    outer loop
      vertex  3.000000e+000  7.235000e+001  2.500000e+000
      vertex  5.768361e+000  6.100000e+001  2.500000e+000
      vertex  5.768361e+000  7.323164e+001  2.500000e+000
    endloop
  endfacet
  facet normal  0.000000e+000  0.000000e+000  1.000000e+000
    outer loop
      vertex  3.000000e+000  7.235000e+001  2.500000e+000
      vertex  5.768361e+000  7.323164e+001  2.500000e+000
      vertex  3.813173e+000  7.268683e+001  2.500000e+000
    endloop
  endfacet
  facet normal  0.000000e+000  0.000000e+000  1.000000e+000
    outer loop
      vertex  2.768361e+000  5.500000e+001  2.500000e+000
      vertex  2.186827e+000  3.813173e+000  2.500000e+000
      vertex  5.768361e+000  5.500000e+001  2.500000e+000
    endloop
  endfacet
  facet normal  0.000000e+000  0.000000e+000  1.000000e+000
    outer loop
      vertex  5.768361e+000  5.500000e+001  2.500000e+000
      vertex  2.186827e+000  3.813173e+000  2.500000e+000
      vertex  3.000000e+000  4.150000e+000  2.500000e+000
    endloop
  endfacet
  facet normal  0.000000e+000  0.000000e+000  1.000000e+000
    outer loop
      vertex  5.768361e+000  5.500000e+001  2.500000e+000
      vertex  3.000000e+000  4.150000e+000  2.500000e+000
      vertex  5.768361e+000  1.172676e+001  2.500000e+000
    endloop
  endfacet
  facet normal  0.000000e+000  0.000000e+000  1.000000e+000
    outer loop
      vertex  5.768361e+000  1.172676e+001  2.500000e+000
      vertex  3.000000e+000  4.150000e+000  2.500000e+000
      vertex  3.813173e+000  3.813173e+000  2.500000e+000
    endloop
  endfacet
  facet normal  9.238795e-001 -3.826835e-001  0.000000e+000
    outer loop
      vertex  4.150000e+000  3.000000e+000  2.500000e+000
      vertex  4.150000e+000  3.000000e+000  5.500000e+000
      vertex  3.813173e+000  2.186827e+000  2.500000e+000
    endloop
  endfacet
  facet normal  9.238795e-001 -3.826835e-001  0.000000e+000
    outer loop
      vertex  3.813173e+000  2.186827e+000  2.500000e+000
      vertex  4.150000e+000  3.000000e+000  5.500000e+000
      vertex  3.813173e+000  2.186827e+000  5.500000e+000
    endloop
  endfacet
  facet normal  3.826834e-001 -9.238796e-001  0.000000e+000
    outer loop
      vertex  3.813173e+000  2.186827e+000  2.500000e+000
      vertex  3.813173e+000  2.186827e+000  5.500000e+000
      vertex  3.000000e+000  1.850000e+000  2.500000e+000
    endloop
  endfacet
  facet normal  3.826834e-001 -9.238796e-001  0.000000e+000
    outer loop
      vertex  3.000000e+000  1.850000e+000  2.500000e+000
      vertex  3.813173e+000  2.186827e+000  5.500000e+000
      vertex  3.000000e+000  1.850000e+000  5.500000e+000
    endloop
  endfacet
  facet normal -3.826834e-001 -9.238796e-001  -0.000000e+000
    outer loop
      vertex  3.000000e+000  1.850000e+000  2.500000e+000
      vertex  3.000000e+000  1.850000e+000  5.500000e+000
      vertex  2.186827e+000  2.186827e+000  2.500000e+000
    endloop
  endfacet
  facet normal -3.826834e-001 -9.238796e-001  0.000000e+000
    outer loop
      vertex  2.186827e+000  2.186827e+000  2.500000e+000
      vertex  3.000000e+000  1.850000e+000  5.500000e+000
      vertex  2.186827e+000  2.186827e+000  5.500000e+000
    endloop
  endfacet
  facet normal -9.238796e-001 -3.826834e-001  -0.000000e+000
    outer loop
      vertex  2.186827e+000  2.186827e+000  2.500000e+000
      vertex  2.186827e+000  2.186827e+000  5.500000e+000
      vertex  1.850000e+000  3.000000e+000  2.500000e+000
    endloop
  endfacet
  facet normal -9.238796e-001 -3.826834e-001  0.000000e+000
    outer loop
      vertex  1.850000e+000  3.000000e+000  2.500000e+000
      vertex  2.186827e+000  2.186827e+000  5.500000e+000
      vertex  1.850000e+000  3.000000e+000  5.500000e+000
    endloop
  endfacet
  facet normal -9.238796e-001  3.826834e-001  0.000000e+000
    outer loop
      vertex  1.850000e+000  3.000000e+000  2.500000e+000
      vertex  1.850000e+000  3.000000e+000  5.500000e+000
      vertex  2.186827e+000  3.813173e+000  2.500000e+000
    endloop
  endfacet
  facet normal -9.238796e-001  3.826834e-001  0.000000e+000
    outer loop
      vertex  2.186827e+000  3.813173e+000  2.500000e+000
      vertex  1.850000e+000  3.000000e+000  5.500000e+000
      vertex  2.186827e+000  3.813173e+000  5.500000e+000
    endloop
  endfacet
  facet normal -3.826835e-001  9.238795e-001  0.000000e+000
    outer loop
      vertex  2.186827e+000  3.813173e+000  2.500000e+000
      vertex  2.186827e+000  3.813173e+000  5.500000e+000
      vertex  3.000000e+000  4.150000e+000  2.500000e+000
    endloop
  endfacet
  facet normal -3.826835e-001  9.238795e-001  0.000000e+000
    outer loop
      vertex  3.000000e+000  4.150000e+000  2.500000e+000
      vertex  2.186827e+000  3.813173e+000  5.500000e+000
      vertex  3.000000e+000  4.150000e+000  5.500000e+000
    endloop
  endfacet
  facet normal  3.826835e-001  9.238795e-001  0.000000e+000
    outer loop
      vertex  3.000000e+000  4.150000e+000  2.500000e+000
      vertex  3.000000e+000  4.150000e+000  5.500000e+000
      vertex  3.813173e+000  3.813173e+000  2.500000e+000
    endloop
  endfacet
  facet normal  3.826835e-001  9.238795e-001  -0.000000e+000
    outer loop
      vertex  3.813173e+000  3.813173e+000  2.500000e+000
      vertex  3.000000e+000  4.150000e+000  5.500000e+000
      vertex  3.813173e+000  3.813173e+000  5.500000e+000
    endloop
  endfacet
  facet normal  9.238795e-001  3.826835e-001  0.000000e+000
    outer loop
      vertex  3.813173e+000  3.813173e+000  2.500000e+000
      vertex  3.813173e+000  3.813173e+000  5.500000e+000
      vertex  4.150000e+000  3.000000e+000  2.500000e+000
    endloop
  endfacet
  facet normal  9.238795e-001  3.826835e-001  -0.000000e+000
    outer loop
      vertex  4.150000e+000  3.000000e+000  2.500000e+000
      vertex  3.813173e+000  3.813173e+000  5.500000e+000
      vertex  4.150000e+000  3.000000e+000  5.500000e+000
    endloop
  endfacet
  facet normal  9.238781e-001 -3.826869e-001  0.000000e+000
    outer loop
      vertex  3.865000e+001  7.600000e+001  2.500000e+000
      vertex  3.865000e+001  7.600000e+001  5.500000e+000
      vertex  3.831317e+001  7.518683e+001  2.500000e+000
    endloop
  endfacet
  facet normal  9.238781e-001 -3.826869e-001  0.000000e+000
    outer loop
      vertex  3.831317e+001  7.518683e+001  2.500000e+000
      vertex  3.865000e+001  7.600000e+001  5.500000e+000
      vertex  3.831317e+001  7.518683e+001  5.500000e+000
    endloop
  endfacet
  facet normal  3.826869e-001 -9.238781e-001  0.000000e+000
    outer loop
      vertex  3.831317e+001  7.518683e+001  2.500000e+000
      vertex  3.831317e+001  7.518683e+001  5.500000e+000
      vertex  3.750000e+001  7.485000e+001  2.500000e+000
    endloop
  endfacet
  facet normal  3.826869e-001 -9.238781e-001  0.000000e+000
    outer loop
      vertex  3.750000e+001  7.485000e+001  2.500000e+000
      vertex  3.831317e+001  7.518683e+001  5.500000e+000
      vertex  3.750000e+001  7.485000e+001  5.500000e+000
    endloop
  endfacet
  facet normal -3.826869e-001 -9.238781e-001  -0.000000e+000
    outer loop
      vertex  3.750000e+001  7.485000e+001  2.500000e+000
      vertex  3.750000e+001  7.485000e+001  5.500000e+000
      vertex  3.668683e+001  7.518683e+001  2.500000e+000
    endloop
  endfacet
  facet normal -3.826869e-001 -9.238781e-001  0.000000e+000
    outer loop
      vertex  3.668683e+001  7.518683e+001  2.500000e+000
      vertex  3.750000e+001  7.485000e+001  5.500000e+000
      vertex  3.668683e+001  7.518683e+001  5.500000e+000
    endloop
  endfacet
  facet normal -9.238781e-001 -3.826869e-001  -0.000000e+000
    outer loop
      vertex  3.668683e+001  7.518683e+001  2.500000e+000
      vertex  3.668683e+001  7.518683e+001  5.500000e+000
      vertex  3.635000e+001  7.600000e+001  2.500000e+000
    endloop
  endfacet
  facet normal -9.238781e-001 -3.826869e-001  0.000000e+000
    outer loop
      vertex  3.635000e+001  7.600000e+001  2.500000e+000
      vertex  3.668683e+001  7.518683e+001  5.500000e+000
      vertex  3.635000e+001  7.600000e+001  5.500000e+000
    endloop
  endfacet
  facet normal -9.238781e-001  3.826869e-001  0.000000e+000
    outer loop
      vertex  3.635000e+001  7.600000e+001  2.500000e+000
      vertex  3.635000e+001  7.600000e+001  5.500000e+000
      vertex  3.668683e+001  7.681317e+001  2.500000e+000
    endloop
  endfacet
  facet normal -9.238781e-001  3.826869e-001  0.000000e+000
    outer loop
      vertex  3.668683e+001  7.681317e+001  2.500000e+000
      vertex  3.635000e+001  7.600000e+001  5.500000e+000
      vertex  3.668683e+001  7.681317e+001  5.500000e+000
    endloop
  endfacet
  facet normal -3.826869e-001  9.238781e-001  0.000000e+000
    outer loop
      vertex  3.668683e+001  7.681317e+001  2.500000e+000
      vertex  3.668683e+001  7.681317e+001  5.500000e+000
      vertex  3.750000e+001  7.715000e+001  2.500000e+000
    endloop
  endfacet
  facet normal -3.826869e-001  9.238781e-001  0.000000e+000
    outer loop
      vertex  3.750000e+001  7.715000e+001  2.500000e+000
      vertex  3.668683e+001  7.681317e+001  5.500000e+000
      vertex  3.750000e+001  7.715000e+001  5.500000e+000
    endloop
  endfacet
  facet normal  3.826869e-001  9.238781e-001  0.000000e+000
    outer loop
      vertex  3.750000e+001  7.715000e+001  2.500000e+000
      vertex  3.750000e+001  7.715000e+001  5.500000e+000
      vertex  3.831317e+001  7.681317e+001  2.500000e+000
    endloop
  endfacet
  facet normal  3.826869e-001  9.238781e-001  -0.000000e+000
    outer loop
      vertex  3.831317e+001  7.681317e+001  2.500000e+000
      vertex  3.750000e+001  7.715000e+001  5.500000e+000
      vertex  3.831317e+001  7.681317e+001  5.500000e+000
    endloop
  endfacet
  facet normal  9.238781e-001  3.826869e-001  0.000000e+000
    outer loop
      vertex  3.831317e+001  7.681317e+001  2.500000e+000
      vertex  3.831317e+001  7.681317e+001  5.500000e+000
      vertex  3.865000e+001  7.600000e+001  2.500000e+000
    endloop
  endfacet
  facet normal  9.238781e-001  3.826869e-001  -0.000000e+000
    outer loop
      vertex  3.865000e+001  7.600000e+001  2.500000e+000
      vertex  3.831317e+001  7.681317e+001  5.500000e+000
      vertex  3.865000e+001  7.600000e+001  5.500000e+000
    endloop
  endfacet
  facet normal  9.238793e-001 -3.826841e-001  0.000000e+000
    outer loop
      vertex  4.150000e+000  7.350000e+001  2.500000e+000
      vertex  4.150000e+000  7.350000e+001  5.500000e+000
      vertex  3.813173e+000  7.268683e+001  2.500000e+000
    endloop
  endfacet
  facet normal  9.238793e-001 -3.826841e-001  0.000000e+000
    outer loop
      vertex  3.813173e+000  7.268683e+001  2.500000e+000
      vertex  4.150000e+000  7.350000e+001  5.500000e+000
      vertex  3.813173e+000  7.268683e+001  5.500000e+000
    endloop
  endfacet
  facet normal  3.826863e-001 -9.238783e-001  0.000000e+000
    outer loop
      vertex  3.813173e+000  7.268683e+001  2.500000e+000
      vertex  3.813173e+000  7.268683e+001  5.500000e+000
      vertex  3.000000e+000  7.235000e+001  2.500000e+000
    endloop
  endfacet
  facet normal  3.826863e-001 -9.238783e-001  0.000000e+000
    outer loop
      vertex  3.000000e+000  7.235000e+001  2.500000e+000
      vertex  3.813173e+000  7.268683e+001  5.500000e+000
      vertex  3.000000e+000  7.235000e+001  5.500000e+000
    endloop
  endfacet
  facet normal -3.826863e-001 -9.238783e-001  -0.000000e+000
    outer loop
      vertex  3.000000e+000  7.235000e+001  2.500000e+000
      vertex  3.000000e+000  7.235000e+001  5.500000e+000
      vertex  2.186827e+000  7.268683e+001  2.500000e+000
    endloop
  endfacet
  facet normal -3.826863e-001 -9.238783e-001  0.000000e+000
    outer loop
      vertex  2.186827e+000  7.268683e+001  2.500000e+000
      vertex  3.000000e+000  7.235000e+001  5.500000e+000
      vertex  2.186827e+000  7.268683e+001  5.500000e+000
    endloop
  endfacet
  facet normal -9.238793e-001 -3.826840e-001  -0.000000e+000
    outer loop
      vertex  2.186827e+000  7.268683e+001  2.500000e+000
      vertex  2.186827e+000  7.268683e+001  5.500000e+000
      vertex  1.850000e+000  7.350000e+001  2.500000e+000
    endloop
  endfacet
  facet normal -9.238793e-001 -3.826840e-001  0.000000e+000
    outer loop
      vertex  1.850000e+000  7.350000e+001  2.500000e+000
      vertex  2.186827e+000  7.268683e+001  5.500000e+000
      vertex  1.850000e+000  7.350000e+001  5.500000e+000
    endloop
  endfacet
  facet normal -9.238793e-001  3.826840e-001  0.000000e+000
    outer loop
      vertex  1.850000e+000  7.350000e+001  2.500000e+000
      vertex  1.850000e+000  7.350000e+001  5.500000e+000
      vertex  2.186827e+000  7.431317e+001  2.500000e+000
    endloop
  endfacet
  facet normal -9.238793e-001  3.826840e-001  0.000000e+000
    outer loop
      vertex  2.186827e+000  7.431317e+001  2.500000e+000
      vertex  1.850000e+000  7.350000e+001  5.500000e+000
      vertex  2.186827e+000  7.431317e+001  5.500000e+000
    endloop
  endfacet
  facet normal -3.826863e-001  9.238783e-001  0.000000e+000
    outer loop
      vertex  2.186827e+000  7.431317e+001  2.500000e+000
      vertex  2.186827e+000  7.431317e+001  5.500000e+000
      vertex  3.000000e+000  7.465000e+001  2.500000e+000
    endloop
  endfacet
  facet normal -3.826863e-001  9.238783e-001  0.000000e+000
    outer loop
      vertex  3.000000e+000  7.465000e+001  2.500000e+000
      vertex  2.186827e+000  7.431317e+001  5.500000e+000
      vertex  3.000000e+000  7.465000e+001  5.500000e+000
    endloop
  endfacet
  facet normal  3.826863e-001  9.238783e-001  0.000000e+000
    outer loop
      vertex  3.000000e+000  7.465000e+001  2.500000e+000
      vertex  3.000000e+000  7.465000e+001  5.500000e+000
      vertex  3.813173e+000  7.431317e+001  2.500000e+000
    endloop
  endfacet
  facet normal  3.826863e-001  9.238783e-001  -0.000000e+000
    outer loop
      vertex  3.813173e+000  7.431317e+001  2.500000e+000
      vertex  3.000000e+000  7.465000e+001  5.500000e+000
      vertex  3.813173e+000  7.431317e+001  5.500000e+000
    endloop
  endfacet
  facet normal  9.238793e-001  3.826841e-001  0.000000e+000
    outer loop
      vertex  3.813173e+000  7.431317e+001  2.500000e+000
      vertex  3.813173e+000  7.431317e+001  5.500000e+000
      vertex  4.150000e+000  7.350000e+001  2.500000e+000
    endloop
  endfacet
  facet normal  9.238793e-001  3.826841e-001  -0.000000e+000
    outer loop
      vertex  4.150000e+000  7.350000e+001  2.500000e+000
      vertex  3.813173e+000  7.431317e+001  5.500000e+000
      vertex  4.150000e+000  7.350000e+001  5.500000e+000
    endloop
  endfacet
  facet normal  0.000000e+000  0.000000e+000  1.000000e+000
    outer loop
      vertex  2.186827e+000  3.813173e+000  5.500000e+000
      vertex  3.813173e+000  3.813173e+000  5.500000e+000
      vertex  3.000000e+000  4.150000e+000  5.500000e+000
    endloop
  endfacet
  facet normal  -0.000000e+000  0.000000e+000  1.000000e+000
    outer loop
      vertex  3.813173e+000  3.813173e+000  5.500000e+000
      vertex  2.186827e+000  3.813173e+000  5.500000e+000
      vertex  4.150000e+000  3.000000e+000  5.500000e+000
    endloop
  endfacet
  facet normal  0.000000e+000  0.000000e+000  9.999999e-001
    outer loop
      vertex  4.150000e+000  3.000000e+000  5.500000e+000
      vertex  2.186827e+000  3.813173e+000  5.500000e+000
      vertex  1.850000e+000  3.000000e+000  5.500000e+000
    endloop
  endfacet
  facet normal  -0.000000e+000  0.000000e+000  9.999999e-001
    outer loop
      vertex  4.150000e+000  3.000000e+000  5.500000e+000
      vertex  1.850000e+000  3.000000e+000  5.500000e+000
      vertex  3.813173e+000  2.186827e+000  5.500000e+000
    endloop
  endfacet
  facet normal  0.000000e+000  0.000000e+000  1.000000e+000
    outer loop
      vertex  3.813173e+000  2.186827e+000  5.500000e+000
      vertex  1.850000e+000  3.000000e+000  5.500000e+000
      vertex  2.186827e+000  2.186827e+000  5.500000e+000
    endloop
  endfacet
  facet normal  -0.000000e+000  0.000000e+000  1.000000e+000
    outer loop
      vertex  3.813173e+000  2.186827e+000  5.500000e+000
      vertex  2.186827e+000  2.186827e+000  5.500000e+000
      vertex  3.000000e+000  1.850000e+000  5.500000e+000
    endloop
  endfacet
  facet normal  0.000000e+000  0.000000e+000  1.000000e+000
    outer loop
      vertex  3.668683e+001  7.681317e+001  5.500000e+000
      vertex  3.831317e+001  7.681317e+001  5.500000e+000
      vertex  3.750000e+001  7.715000e+001  5.500000e+000
    endloop
  endfacet
  facet normal  -0.000000e+000  0.000000e+000  1.000000e+000
    outer loop
      vertex  3.831317e+001  7.681317e+001  5.500000e+000
      vertex  3.668683e+001  7.681317e+001  5.500000e+000
      vertex  3.865000e+001  7.600000e+001  5.500000e+000
    endloop
  endfacet
  facet normal  0.000000e+000  0.000000e+000  1.000000e+000
    outer loop
      vertex  3.865000e+001  7.600000e+001  5.500000e+000
      vertex  3.668683e+001  7.681317e+001  5.500000e+000
      vertex  3.635000e+001  7.600000e+001  5.500000e+000
    endloop
  endfacet
  facet normal  -0.000000e+000  0.000000e+000  1.000000e+000
    outer loop
      vertex  3.865000e+001  7.600000e+001  5.500000e+000
      vertex  3.635000e+001  7.600000e+001  5.500000e+000
      vertex  3.831317e+001  7.518683e+001  5.500000e+000
    endloop
  endfacet
  facet normal  0.000000e+000  0.000000e+000  1.000000e+000
    outer loop
      vertex  3.831317e+001  7.518683e+001  5.500000e+000
      vertex  3.635000e+001  7.600000e+001  5.500000e+000
      vertex  3.668683e+001  7.518683e+001  5.500000e+000
    endloop
  endfacet
  facet normal  -0.000000e+000  0.000000e+000  1.000000e+000
    outer loop
      vertex  3.831317e+001  7.518683e+001  5.500000e+000
      vertex  3.668683e+001  7.518683e+001  5.500000e+000
      vertex  3.750000e+001  7.485000e+001  5.500000e+000
    endloop
  endfacet
  facet normal  0.000000e+000  0.000000e+000  1.000000e+000
    outer loop
      vertex  2.186827e+000  7.431317e+001  5.500000e+000
      vertex  3.813173e+000  7.431317e+001  5.500000e+000
      vertex  3.000000e+000  7.465000e+001  5.500000e+000
    endloop
  endfacet
  facet normal  -0.000000e+000  0.000000e+000  9.999999e-001
    outer loop
      vertex  3.813173e+000  7.431317e+001  5.500000e+000
      vertex  2.186827e+000  7.431317e+001  5.500000e+000
      vertex  4.150000e+000  7.350000e+001  5.500000e+000
    endloop
  endfacet
  facet normal  0.000000e+000  0.000000e+000  9.999999e-001
    outer loop
      vertex  4.150000e+000  7.350000e+001  5.500000e+000
      vertex  2.186827e+000  7.431317e+001  5.500000e+000
      vertex  1.850000e+000  7.350000e+001  5.500000e+000
    endloop
  endfacet
  facet normal  -0.000000e+000  0.000000e+000  9.999999e-001
    outer loop
      vertex  4.150000e+000  7.350000e+001  5.500000e+000
      vertex  1.850000e+000  7.350000e+001  5.500000e+000
      vertex  3.813173e+000  7.268683e+001  5.500000e+000
    endloop
  endfacet
  facet normal  0.000000e+000  0.000000e+000  9.999999e-001
    outer loop
      vertex  3.813173e+000  7.268683e+001  5.500000e+000
      vertex  1.850000e+000  7.350000e+001  5.500000e+000
      vertex  2.186827e+000  7.268683e+001  5.500000e+000
    endloop
  endfacet
  facet normal  -0.000000e+000  0.000000e+000  1.000000e+000
    outer loop
      vertex  3.813173e+000  7.268683e+001  5.500000e+000
      vertex  2.186827e+000  7.268683e+001  5.500000e+000
      vertex  3.000000e+000  7.235000e+001  5.500000e+000
    endloop
  endfacet
  facet normal  0.000000e+000  0.000000e+000 -1.000000e+000
    outer loop
      vertex  5.768361e+000  6.100000e+001  0.000000e+000
      vertex  2.768361e+000  6.100000e+001  0.000000e+000
      vertex  5.768361e+000  7.323164e+001  0.000000e+000
    endloop
  endfacet
  facet normal  -0.000000e+000  0.000000e+000 -9.999999e-001
    outer loop
      vertex -2.384186e-007  7.900000e+001  0.000000e+000
      vertex  4.050000e+001  7.900000e+001  0.000000e+000
      vertex  3.473164e+001  7.323164e+001  0.000000e+000
    endloop
  endfacet
  facet normal  0.000000e+000  0.000000e+000 -1.000000e+000
    outer loop
      vertex -2.384186e-007  7.900000e+001  0.000000e+000
      vertex  3.473164e+001  7.323164e+001  0.000000e+000
      vertex  5.768361e+000  7.323164e+001  0.000000e+000
    endloop
  endfacet
  facet normal  -0.000000e+000  0.000000e+000 -9.999999e-001
    outer loop
      vertex -2.384186e-007  7.900000e+001  0.000000e+000
      vertex  5.768361e+000  7.323164e+001  0.000000e+000
      vertex  2.768361e+000  6.100000e+001  0.000000e+000
    endloop
  endfacet
  facet normal  -0.000000e+000  0.000000e+000 -9.999999e-001
    outer loop
      vertex -2.384186e-007  7.900000e+001  0.000000e+000
      vertex  2.768361e+000  6.100000e+001  0.000000e+000
      vertex -2.384186e-007  0.000000e+000  0.000000e+000
    endloop
  endfacet
  facet normal  0.000000e+000  -0.000000e+000 -1.000000e+000
    outer loop
      vertex -2.384186e-007  0.000000e+000  0.000000e+000
      vertex  2.768361e+000  6.100000e+001  0.000000e+000
      vertex  2.768361e+000  5.500000e+001  0.000000e+000
    endloop
  endfacet
  facet normal  0.000000e+000  -0.000000e+000 -1.000000e+000
    outer loop
      vertex -2.384186e-007  0.000000e+000  0.000000e+000
      vertex  2.768361e+000  5.500000e+001  0.000000e+000
      vertex  5.768361e+000  5.500000e+001  0.000000e+000
    endloop
  endfacet
  facet normal  0.000000e+000  -0.000000e+000 -1.000000e+000
    outer loop
      vertex -2.384186e-007  0.000000e+000  0.000000e+000
      vertex  5.768361e+000  5.500000e+001  0.000000e+000
      vertex  5.768361e+000  1.172676e+001  0.000000e+000
    endloop
  endfacet
  facet normal  0.000000e+000  -0.000000e+000 -1.000000e+000
    outer loop
      vertex -2.384186e-007  0.000000e+000  0.000000e+000
      vertex  5.768361e+000  1.172676e+001  0.000000e+000
      vertex  6.000000e+000 -7.908656e-016  0.000000e+000
    endloop
  endfacet
  facet normal  0.000000e+000  0.000000e+000 -9.999999e-001
    outer loop
      vertex  4.050000e+001  7.900000e+001  0.000000e+000
      vertex  4.050000e+001  6.400000e+001  0.000000e+000
      vertex  3.473164e+001  7.323164e+001  0.000000e+000
    endloop
  endfacet
  facet normal  0.000000e+000  0.000000e+000 -9.999999e-001
    outer loop
      vertex  3.473164e+001  7.323164e+001  0.000000e+000
      vertex  4.050000e+001  6.400000e+001  0.000000e+000
      vertex  3.473164e+001  6.545573e+001  0.000000e+000
    endloop
  endfacet
  facet normal  0.000000e+000  0.000000e+000 -9.999999e-001
    outer loop
      vertex  4.050000e+001  6.400000e+001  0.000000e+000
      vertex  6.000000e+000 -7.908656e-016  0.000000e+000
      vertex  3.473164e+001  6.545573e+001  0.000000e+000
    endloop
  endfacet
  facet normal  0.000000e+000  0.000000e+000 -1.000000e+000
    outer loop
      vertex  3.473164e+001  6.545573e+001  0.000000e+000
      vertex  6.000000e+000 -7.908656e-016  0.000000e+000
      vertex  5.768361e+000  1.172676e+001  0.000000e+000
    endloop
  endfacet
  facet normal -8.802502e-001  4.745099e-001  0.000000e+000
    outer loop
      vertex  3.473164e+001  6.545573e+001  2.500000e+000
      vertex  3.473164e+001  6.545573e+001  0.000000e+000
      vertex  5.768361e+000  1.172676e+001  2.500000e+000
    endloop
  endfacet
  facet normal -8.802502e-001  4.745099e-001  0.000000e+000
    outer loop
      vertex  5.768361e+000  1.172676e+001  2.500000e+000
      vertex  3.473164e+001  6.545573e+001  0.000000e+000
      vertex  5.768361e+000  1.172676e+001  0.000000e+000
    endloop
  endfacet
  facet normal -1.000000e+000  0.000000e+000  0.000000e+000
    outer loop
      vertex  3.473164e+001  7.323164e+001  2.500000e+000
      vertex  3.473164e+001  7.323164e+001  0.000000e+000
      vertex  3.473164e+001  6.545573e+001  2.500000e+000
    endloop
  endfacet
  facet normal -1.000000e+000  0.000000e+000  0.000000e+000
    outer loop
      vertex  3.473164e+001  6.545573e+001  2.500000e+000
      vertex  3.473164e+001  7.323164e+001  0.000000e+000
      vertex  3.473164e+001  6.545573e+001  0.000000e+000
    endloop
  endfacet
  facet normal  0.000000e+000 -1.000000e+000  0.000000e+000
    outer loop
      vertex  5.768361e+000  7.323164e+001  2.500000e+000
      vertex  5.768361e+000  7.323164e+001  0.000000e+000
      vertex  3.473164e+001  7.323164e+001  2.500000e+000
    endloop
  endfacet
  facet normal  0.000000e+000 -1.000000e+000  -0.000000e+000
    outer loop
      vertex  3.473164e+001  7.323164e+001  2.500000e+000
      vertex  5.768361e+000  7.323164e+001  0.000000e+000
      vertex  3.473164e+001  7.323164e+001  0.000000e+000
    endloop
  endfacet
  facet normal  1.000000e+000  0.000000e+000  0.000000e+000
    outer loop
      vertex  5.768361e+000  6.100000e+001  2.500000e+000
      vertex  5.768361e+000  6.100000e+001  0.000000e+000
      vertex  5.768361e+000  7.323164e+001  2.500000e+000
    endloop
  endfacet
  facet normal  1.000000e+000  0.000000e+000  0.000000e+000
    outer loop
      vertex  5.768361e+000  7.323164e+001  2.500000e+000
      vertex  5.768361e+000  6.100000e+001  0.000000e+000
      vertex  5.768361e+000  7.323164e+001  0.000000e+000
    endloop
  endfacet
  facet normal  0.000000e+000 -1.000000e+000  0.000000e+000
    outer loop
      vertex  2.768361e+000  6.100000e+001  2.500000e+000
      vertex  2.768361e+000  6.100000e+001  0.000000e+000
      vertex  5.768361e+000  6.100000e+001  2.500000e+000
    endloop
  endfacet
  facet normal  0.000000e+000 -1.000000e+000  -0.000000e+000
    outer loop
      vertex  5.768361e+000  6.100000e+001  2.500000e+000
      vertex  2.768361e+000  6.100000e+001  0.000000e+000
      vertex  5.768361e+000  6.100000e+001  0.000000e+000
    endloop
  endfacet
  facet normal  1.000000e+000  0.000000e+000  0.000000e+000
    outer loop
      vertex  2.768361e+000  5.500000e+001  2.500000e+000
      vertex  2.768361e+000  5.500000e+001  0.000000e+000
      vertex  2.768361e+000  6.100000e+001  2.500000e+000
    endloop
  endfacet
  facet normal  1.000000e+000  0.000000e+000  0.000000e+000
    outer loop
      vertex  2.768361e+000  6.100000e+001  2.500000e+000
      vertex  2.768361e+000  5.500000e+001  0.000000e+000
      vertex  2.768361e+000  6.100000e+001  0.000000e+000
    endloop
  endfacet
  facet normal  0.000000e+000  1.000000e+000  -0.000000e+000
    outer loop
      vertex  5.768361e+000  5.500000e+001  2.500000e+000
      vertex  5.768361e+000  5.500000e+001  0.000000e+000
      vertex  2.768361e+000  5.500000e+001  2.500000e+000
    endloop
  endfacet
  facet normal  0.000000e+000  1.000000e+000  0.000000e+000
    outer loop
      vertex  2.768361e+000  5.500000e+001  2.500000e+000
      vertex  5.768361e+000  5.500000e+001  0.000000e+000
      vertex  2.768361e+000  5.500000e+001  0.000000e+000
    endloop
  endfacet
  facet normal  1.000000e+000  0.000000e+000  0.000000e+000
    outer loop
      vertex  5.768361e+000  1.172676e+001  2.500000e+000
      vertex  5.768361e+000  1.172676e+001  0.000000e+000
      vertex  5.768361e+000  5.500000e+001  2.500000e+000
    endloop
  endfacet
  facet normal  1.000000e+000  0.000000e+000  0.000000e+000
    outer loop
      vertex  5.768361e+000  5.500000e+001  2.500000e+000
      vertex  5.768361e+000  1.172676e+001  0.000000e+000
      vertex  5.768361e+000  5.500000e+001  0.000000e+000
    endloop
  endfacet
  facet normal -1.000000e+000  -0.000000e+000  0.000000e+000
    outer loop
      vertex -2.384186e-007  0.000000e+000  2.500000e+000
      vertex -2.384186e-007  7.900000e+001  2.500000e+000
      vertex -2.384186e-007  0.000000e+000  0.000000e+000
    endloop
  endfacet
  facet normal -1.000000e+000  0.000000e+000  0.000000e+000
    outer loop
      vertex -2.384186e-007  0.000000e+000  0.000000e+000
      vertex -2.384186e-007  7.900000e+001  2.500000e+000
      vertex -2.384186e-007  7.900000e+001  0.000000e+000
    endloop
  endfacet
  facet normal  0.000000e+000  1.000000e+000  0.000000e+000
    outer loop
      vertex -2.384186e-007  7.900000e+001  2.500000e+000
      vertex  4.050000e+001  7.900000e+001  2.500000e+000
      vertex -2.384186e-007  7.900000e+001  0.000000e+000
    endloop
  endfacet
  facet normal  0.000000e+000  1.000000e+000  0.000000e+000
    outer loop
      vertex -2.384186e-007  7.900000e+001  0.000000e+000
      vertex  4.050000e+001  7.900000e+001  2.500000e+000
      vertex  4.050000e+001  7.900000e+001  0.000000e+000
    endloop
  endfacet
  facet normal  1.000000e+000  -0.000000e+000  0.000000e+000
    outer loop
      vertex  4.050000e+001  7.900000e+001  2.500000e+000
      vertex  4.050000e+001  6.400000e+001  2.500000e+000
      vertex  4.050000e+001  7.900000e+001  0.000000e+000
    endloop
  endfacet
  facet normal  1.000000e+000  0.000000e+000  0.000000e+000
    outer loop
      vertex  4.050000e+001  7.900000e+001  0.000000e+000
      vertex  4.050000e+001  6.400000e+001  2.500000e+000
      vertex  4.050000e+001  6.400000e+001  0.000000e+000
    endloop
  endfacet
  facet normal  8.802502e-001 -4.745099e-001  0.000000e+000
    outer loop
      vertex  4.050000e+001  6.400000e+001  2.500000e+000
      vertex  6.000000e+000 -7.908656e-016  2.500000e+000
      vertex  4.050000e+001  6.400000e+001  0.000000e+000
    endloop
  endfacet
  facet normal  8.802502e-001 -4.745099e-001  0.000000e+000
    outer loop
      vertex  4.050000e+001  6.400000e+001  0.000000e+000
      vertex  6.000000e+000 -7.908656e-016  2.500000e+000
      vertex  6.000000e+000 -7.908656e-016  0.000000e+000
    endloop
  endfacet
  facet normal -1.318109e-016 -1.000000e+000  0.000000e+000
    outer loop
      vertex  6.000000e+000 -7.908656e-016  2.500000e+000
      vertex -2.384186e-007  0.000000e+000  2.500000e+000
      vertex  6.000000e+000 -7.908656e-016  0.000000e+000
    endloop
  endfacet
  facet normal -1.318109e-016 -1.000000e+000  0.000000e+000
    outer loop
      vertex  6.000000e+000 -7.908656e-016  0.000000e+000
      vertex -2.384186e-007  0.000000e+000  2.500000e+000
      vertex -2.384186e-007  0.000000e+000  0.000000e+000
    endloop
  endfacet
endsolid CATIA STL
