solid CATIA STL
  facet normal  0.000000e+000  0.000000e+000 -1.000000e+000
    outer loop
      vertex  1.486913e+000  1.400000e+001  0.000000e+000
      vertex -1.308727e-002  1.400000e+001  0.000000e+000
      vertex  1.831928e+000  1.691500e+001  0.000000e+000
    endloop
  endfacet
  facet normal  0.000000e+000  -0.000000e+000 -1.000000e+000
    outer loop
      vertex -2.664535e-015  1.106375e+001  0.000000e+000
      vertex  1.486913e+000  1.400000e+001  0.000000e+000
      vertex  1.500000e+000  1.106375e+001  0.000000e+000
    endloop
  endfacet
  facet normal  0.000000e+000  0.000000e+000 -1.000000e+000
    outer loop
      vertex  1.486913e+000 -9.000000e+000  0.000000e+000
      vertex -1.308727e-002 -9.000000e+000  0.000000e+000
      vertex  1.830705e+000 -6.084744e+000  0.000000e+000
    endloop
  endfacet
  facet normal  0.000000e+000  -0.000000e+000 -1.000000e+000
    outer loop
      vertex  9.992007e-016 -1.193644e+001  0.000000e+000
      vertex  1.486913e+000 -9.000000e+000  0.000000e+000
      vertex  1.500000e+000 -1.193644e+001  0.000000e+000
    endloop
  endfacet
  facet normal  0.000000e+000  0.000000e+000 -9.999999e-001
    outer loop
      vertex  2.000000e+001 -2.000000e+001  0.000000e+000
      vertex -2.000000e+001 -2.000000e+001  0.000000e+000
      vertex -1.195102e+000 -1.685170e+001  0.000000e+000
    endloop
  endfacet
  facet normal  0.000000e+000  0.000000e+000 -1.000000e+000
    outer loop
      vertex  2.000000e+001 -2.000000e+001  0.000000e+000
      vertex -1.195102e+000 -1.685170e+001  0.000000e+000
      vertex  1.500000e+000 -1.193644e+001  0.000000e+000
    endloop
  endfacet
  facet normal  0.000000e+000  0.000000e+000 -9.999999e-001
    outer loop
      vertex  2.000000e+001 -2.000000e+001  0.000000e+000
      vertex  1.500000e+000 -1.193644e+001  0.000000e+000
      vertex  1.486913e+000 -9.000000e+000  0.000000e+000
    endloop
  endfacet
  facet normal  0.000000e+000  0.000000e+000 -1.000000e+000
    outer loop
      vertex  2.000000e+001 -2.000000e+001  0.000000e+000
      vertex  1.486913e+000 -9.000000e+000  0.000000e+000
      vertex  1.830705e+000 -6.084744e+000  0.000000e+000
    endloop
  endfacet
  facet normal  0.000000e+000  0.000000e+000 -1.000000e+000
    outer loop
      vertex  2.000000e+001 -2.000000e+001  0.000000e+000
      vertex  1.830705e+000 -6.084744e+000  0.000000e+000
      vertex  1.500000e+000  1.106375e+001  0.000000e+000
    endloop
  endfacet
  facet normal  0.000000e+000  0.000000e+000 -1.000000e+000
    outer loop
      vertex  2.000000e+001 -2.000000e+001  0.000000e+000
      vertex  1.500000e+000  1.106375e+001  0.000000e+000
      vertex  1.486913e+000  1.400000e+001  0.000000e+000
    endloop
  endfacet
  facet normal  0.000000e+000  0.000000e+000 -1.000000e+000
    outer loop
      vertex  2.000000e+001 -2.000000e+001  0.000000e+000
      vertex  1.486913e+000  1.400000e+001  0.000000e+000
      vertex  1.831928e+000  1.691500e+001  0.000000e+000
    endloop
  endfacet
  facet normal  0.000000e+000  0.000000e+000 -1.000000e+000
    outer loop
      vertex  2.000000e+001 -2.000000e+001  0.000000e+000
      vertex  1.831928e+000  1.691500e+001  0.000000e+000
      vertex  2.000000e+001  2.000000e+001  0.000000e+000
    endloop
  endfacet
  facet normal  0.000000e+000  0.000000e+000 -1.000000e+000
    outer loop
      vertex -2.000000e+001 -2.000000e+001  0.000000e+000
      vertex -2.000000e+001  2.000000e+001  0.000000e+000
      vertex -2.168072e+000  1.691500e+001  0.000000e+000
    endloop
  endfacet
  facet normal  0.000000e+000  0.000000e+000 -1.000000e+000
    outer loop
      vertex -2.000000e+001 -2.000000e+001  0.000000e+000
      vertex -2.168072e+000  1.691500e+001  0.000000e+000
      vertex -2.988301e+000  1.300000e+001  0.000000e+000
    endloop
  endfacet
  facet normal  0.000000e+000  -0.000000e+000 -1.000000e+000
    outer loop
      vertex -2.000000e+001 -2.000000e+001  0.000000e+000
      vertex -2.988301e+000  1.300000e+001  0.000000e+000
      vertex -1.402980e+000  1.300000e+001  0.000000e+000
    endloop
  endfacet
  facet normal  0.000000e+000  0.000000e+000 -1.000000e+000
    outer loop
      vertex -2.000000e+001 -2.000000e+001  0.000000e+000
      vertex -1.402980e+000  1.300000e+001  0.000000e+000
      vertex -2.018151e+000  1.006375e+001  0.000000e+000
    endloop
  endfacet
  facet normal  0.000000e+000  -0.000000e+000 -1.000000e+000
    outer loop
      vertex -2.000000e+001 -2.000000e+001  0.000000e+000
      vertex -2.018151e+000  1.006375e+001  0.000000e+000
      vertex -3.770133e-001  1.006375e+001  0.000000e+000
    endloop
  endfacet
  facet normal  0.000000e+000  0.000000e+000 -1.000000e+000
    outer loop
      vertex -2.000000e+001 -2.000000e+001  0.000000e+000
      vertex -3.770133e-001  1.006375e+001  0.000000e+000
      vertex -1.197242e+000  6.148750e+000  0.000000e+000
    endloop
  endfacet
  facet normal  0.000000e+000  0.000000e+000 -1.000000e+000
    outer loop
      vertex -2.000000e+001 -2.000000e+001  0.000000e+000
      vertex -1.197242e+000  6.148750e+000  0.000000e+000
      vertex -2.169295e+000 -6.084744e+000  0.000000e+000
    endloop
  endfacet
  facet normal  0.000000e+000  0.000000e+000 -1.000000e+000
    outer loop
      vertex -2.000000e+001 -2.000000e+001  0.000000e+000
      vertex -2.169295e+000 -6.084744e+000  0.000000e+000
      vertex -2.988301e+000 -1.000000e+001  0.000000e+000
    endloop
  endfacet
  facet normal  0.000000e+000  -0.000000e+000 -1.000000e+000
    outer loop
      vertex -2.000000e+001 -2.000000e+001  0.000000e+000
      vertex -2.988301e+000 -1.000000e+001  0.000000e+000
      vertex -1.402980e+000 -1.000000e+001  0.000000e+000
    endloop
  endfacet
  facet normal  0.000000e+000  0.000000e+000 -1.000000e+000
    outer loop
      vertex -2.000000e+001 -2.000000e+001  0.000000e+000
      vertex -1.402980e+000 -1.000000e+001  0.000000e+000
      vertex -2.017234e+000 -1.293644e+001  0.000000e+000
    endloop
  endfacet
  facet normal  0.000000e+000  -0.000000e+000 -1.000000e+000
    outer loop
      vertex -2.000000e+001 -2.000000e+001  0.000000e+000
      vertex -2.017234e+000 -1.293644e+001  0.000000e+000
      vertex -3.760961e-001 -1.293644e+001  0.000000e+000
    endloop
  endfacet
  facet normal  0.000000e+000  0.000000e+000 -1.000000e+000
    outer loop
      vertex -2.000000e+001 -2.000000e+001  0.000000e+000
      vertex -3.760961e-001 -1.293644e+001  0.000000e+000
      vertex -1.195102e+000 -1.685170e+001  0.000000e+000
    endloop
  endfacet
  facet normal  0.000000e+000  0.000000e+000 -1.000000e+000
    outer loop
      vertex  1.500000e+000  1.106375e+001  0.000000e+000
      vertex  1.830705e+000 -6.084744e+000  0.000000e+000
      vertex -1.197242e+000  6.148750e+000  0.000000e+000
    endloop
  endfacet
  facet normal  0.000000e+000  -0.000000e+000 -9.999999e-001
    outer loop
      vertex -1.197242e+000  6.148750e+000  0.000000e+000
      vertex  1.830705e+000 -6.084744e+000  0.000000e+000
      vertex -2.169295e+000 -6.084744e+000  0.000000e+000
    endloop
  endfacet
  facet normal  -0.000000e+000  0.000000e+000 -1.000000e+000
    outer loop
      vertex -2.000000e+001  2.000000e+001  0.000000e+000
      vertex  2.000000e+001  2.000000e+001  0.000000e+000
      vertex -2.168072e+000  1.691500e+001  0.000000e+000
    endloop
  endfacet
  facet normal  0.000000e+000  0.000000e+000 -9.999999e-001
    outer loop
      vertex -2.168072e+000  1.691500e+001  0.000000e+000
      vertex  2.000000e+001  2.000000e+001  0.000000e+000
      vertex  1.831928e+000  1.691500e+001  0.000000e+000
    endloop
  endfacet
  facet normal  0.000000e+000  0.000000e+000  1.000000e+000
    outer loop
      vertex  1.830705e+000 -6.084744e+000  3.000000e+000
      vertex -1.308727e-002 -9.000000e+000  3.000000e+000
      vertex  1.486913e+000 -9.000000e+000  3.000000e+000
    endloop
  endfacet
  facet normal  0.000000e+000  0.000000e+000  1.000000e+000
    outer loop
      vertex  1.831928e+000  1.691500e+001  3.000000e+000
      vertex -1.308727e-002  1.400000e+001  3.000000e+000
      vertex  1.486913e+000  1.400000e+001  3.000000e+000
    endloop
  endfacet
  facet normal  0.000000e+000  0.000000e+000  1.000000e+000
    outer loop
      vertex  1.500000e+000  1.106375e+001  3.000000e+000
      vertex  1.486913e+000  1.400000e+001  3.000000e+000
      vertex -2.664535e-015  1.106375e+001  3.000000e+000
    endloop
  endfacet
  facet normal  0.000000e+000  0.000000e+000  1.000000e+000
    outer loop
      vertex  1.500000e+000 -1.193644e+001  3.000000e+000
      vertex  1.486913e+000 -9.000000e+000  3.000000e+000
      vertex  9.992007e-016 -1.193644e+001  3.000000e+000
    endloop
  endfacet
  facet normal  0.000000e+000  0.000000e+000  1.000000e+000
    outer loop
      vertex  2.000000e+001 -2.000000e+001  3.000000e+000
      vertex  2.000000e+001  2.000000e+001  3.000000e+000
      vertex  1.831928e+000  1.691500e+001  3.000000e+000
    endloop
  endfacet
  facet normal  0.000000e+000  0.000000e+000  1.000000e+000
    outer loop
      vertex  2.000000e+001 -2.000000e+001  3.000000e+000
      vertex  1.831928e+000  1.691500e+001  3.000000e+000
      vertex  1.486913e+000  1.400000e+001  3.000000e+000
    endloop
  endfacet
  facet normal  0.000000e+000  0.000000e+000  1.000000e+000
    outer loop
      vertex  2.000000e+001 -2.000000e+001  3.000000e+000
      vertex  1.486913e+000  1.400000e+001  3.000000e+000
      vertex  1.500000e+000  1.106375e+001  3.000000e+000
    endloop
  endfacet
  facet normal  0.000000e+000  0.000000e+000  1.000000e+000
    outer loop
      vertex  2.000000e+001 -2.000000e+001  3.000000e+000
      vertex  1.500000e+000  1.106375e+001  3.000000e+000
      vertex  7.000000e-001  3.750000e+000  3.000000e+000
    endloop
  endfacet
  facet normal  0.000000e+000  0.000000e+000  1.000000e+000
    outer loop
      vertex  2.000000e+001 -2.000000e+001  3.000000e+000
      vertex  7.000000e-001  3.750000e+000  3.000000e+000
      vertex  7.000000e-001 -3.750000e+000  3.000000e+000
    endloop
  endfacet
  facet normal  0.000000e+000  0.000000e+000  1.000000e+000
    outer loop
      vertex  2.000000e+001 -2.000000e+001  3.000000e+000
      vertex  7.000000e-001 -3.750000e+000  3.000000e+000
      vertex  1.830705e+000 -6.084744e+000  3.000000e+000
    endloop
  endfacet
  facet normal  0.000000e+000  0.000000e+000  1.000000e+000
    outer loop
      vertex  2.000000e+001 -2.000000e+001  3.000000e+000
      vertex  1.830705e+000 -6.084744e+000  3.000000e+000
      vertex  1.486913e+000 -9.000000e+000  3.000000e+000
    endloop
  endfacet
  facet normal  0.000000e+000  0.000000e+000  1.000000e+000
    outer loop
      vertex  2.000000e+001 -2.000000e+001  3.000000e+000
      vertex  1.486913e+000 -9.000000e+000  3.000000e+000
      vertex  1.500000e+000 -1.193644e+001  3.000000e+000
    endloop
  endfacet
  facet normal  0.000000e+000  0.000000e+000  1.000000e+000
    outer loop
      vertex  2.000000e+001 -2.000000e+001  3.000000e+000
      vertex  1.500000e+000 -1.193644e+001  3.000000e+000
      vertex -1.195102e+000 -1.685170e+001  3.000000e+000
    endloop
  endfacet
  facet normal  0.000000e+000  0.000000e+000  9.999999e-001
    outer loop
      vertex  2.000000e+001 -2.000000e+001  3.000000e+000
      vertex -1.195102e+000 -1.685170e+001  3.000000e+000
      vertex -2.000000e+001 -2.000000e+001  3.000000e+000
    endloop
  endfacet
  facet normal  0.000000e+000  -0.000000e+000  1.000000e+000
    outer loop
      vertex -2.000000e+001 -2.000000e+001  3.000000e+000
      vertex -1.195102e+000 -1.685170e+001  3.000000e+000
      vertex -3.760961e-001 -1.293644e+001  3.000000e+000
    endloop
  endfacet
  facet normal  0.000000e+000  0.000000e+000  1.000000e+000
    outer loop
      vertex -2.000000e+001 -2.000000e+001  3.000000e+000
      vertex -3.760961e-001 -1.293644e+001  3.000000e+000
      vertex -2.017234e+000 -1.293644e+001  3.000000e+000
    endloop
  endfacet
  facet normal  0.000000e+000  -0.000000e+000  1.000000e+000
    outer loop
      vertex -2.000000e+001 -2.000000e+001  3.000000e+000
      vertex -2.017234e+000 -1.293644e+001  3.000000e+000
      vertex -1.402980e+000 -1.000000e+001  3.000000e+000
    endloop
  endfacet
  facet normal  0.000000e+000  0.000000e+000  1.000000e+000
    outer loop
      vertex -2.000000e+001 -2.000000e+001  3.000000e+000
      vertex -1.402980e+000 -1.000000e+001  3.000000e+000
      vertex -2.988301e+000 -1.000000e+001  3.000000e+000
    endloop
  endfacet
  facet normal  0.000000e+000  -0.000000e+000  1.000000e+000
    outer loop
      vertex -2.000000e+001 -2.000000e+001  3.000000e+000
      vertex -2.988301e+000 -1.000000e+001  3.000000e+000
      vertex -2.169295e+000 -6.084744e+000  3.000000e+000
    endloop
  endfacet
  facet normal  0.000000e+000  -0.000000e+000  1.000000e+000
    outer loop
      vertex -2.000000e+001 -2.000000e+001  3.000000e+000
      vertex -2.169295e+000 -6.084744e+000  3.000000e+000
      vertex -7.000000e-001 -3.750000e+000  3.000000e+000
    endloop
  endfacet
  facet normal  0.000000e+000  -0.000000e+000  1.000000e+000
    outer loop
      vertex -2.000000e+001 -2.000000e+001  3.000000e+000
      vertex -7.000000e-001 -3.750000e+000  3.000000e+000
      vertex -7.000000e-001  3.750000e+000  3.000000e+000
    endloop
  endfacet
  facet normal  0.000000e+000  0.000000e+000  9.999999e-001
    outer loop
      vertex -2.000000e+001 -2.000000e+001  3.000000e+000
      vertex -7.000000e-001  3.750000e+000  3.000000e+000
      vertex -1.197242e+000  6.148750e+000  3.000000e+000
    endloop
  endfacet
  facet normal  0.000000e+000  -0.000000e+000  1.000000e+000
    outer loop
      vertex -2.000000e+001 -2.000000e+001  3.000000e+000
      vertex -1.197242e+000  6.148750e+000  3.000000e+000
      vertex -3.770133e-001  1.006375e+001  3.000000e+000
    endloop
  endfacet
  facet normal  0.000000e+000  0.000000e+000  1.000000e+000
    outer loop
      vertex -2.000000e+001 -2.000000e+001  3.000000e+000
      vertex -3.770133e-001  1.006375e+001  3.000000e+000
      vertex -2.018151e+000  1.006375e+001  3.000000e+000
    endloop
  endfacet
  facet normal  0.000000e+000  -0.000000e+000  1.000000e+000
    outer loop
      vertex -2.000000e+001 -2.000000e+001  3.000000e+000
      vertex -2.018151e+000  1.006375e+001  3.000000e+000
      vertex -1.402980e+000  1.300000e+001  3.000000e+000
    endloop
  endfacet
  facet normal  0.000000e+000  0.000000e+000  1.000000e+000
    outer loop
      vertex -2.000000e+001 -2.000000e+001  3.000000e+000
      vertex -1.402980e+000  1.300000e+001  3.000000e+000
      vertex -2.988301e+000  1.300000e+001  3.000000e+000
    endloop
  endfacet
  facet normal  0.000000e+000  -0.000000e+000  1.000000e+000
    outer loop
      vertex -2.000000e+001 -2.000000e+001  3.000000e+000
      vertex -2.988301e+000  1.300000e+001  3.000000e+000
      vertex -2.168072e+000  1.691500e+001  3.000000e+000
    endloop
  endfacet
  facet normal  0.000000e+000  0.000000e+000  1.000000e+000
    outer loop
      vertex -2.000000e+001 -2.000000e+001  3.000000e+000
      vertex -2.168072e+000  1.691500e+001  3.000000e+000
      vertex -2.000000e+001  2.000000e+001  3.000000e+000
    endloop
  endfacet
  facet normal  -0.000000e+000  0.000000e+000  1.000000e+000
    outer loop
      vertex  1.500000e+000  1.106375e+001  3.000000e+000
      vertex -1.197242e+000  6.148750e+000  3.000000e+000
      vertex  7.000000e-001  3.750000e+000  3.000000e+000
    endloop
  endfacet
  facet normal  0.000000e+000  0.000000e+000  1.000000e+000
    outer loop
      vertex  7.000000e-001  3.750000e+000  3.000000e+000
      vertex -1.197242e+000  6.148750e+000  3.000000e+000
      vertex -7.000000e-001  3.750000e+000  3.000000e+000
    endloop
  endfacet
  facet normal  -0.000000e+000  0.000000e+000  1.000000e+000
    outer loop
      vertex  7.000000e-001 -3.750000e+000  3.000000e+000
      vertex -7.000000e-001 -3.750000e+000  3.000000e+000
      vertex  1.830705e+000 -6.084744e+000  3.000000e+000
    endloop
  endfacet
  facet normal  0.000000e+000  0.000000e+000  1.000000e+000
    outer loop
      vertex  1.830705e+000 -6.084744e+000  3.000000e+000
      vertex -7.000000e-001 -3.750000e+000  3.000000e+000
      vertex -2.169295e+000 -6.084744e+000  3.000000e+000
    endloop
  endfacet
  facet normal  0.000000e+000  -0.000000e+000  1.000000e+000
    outer loop
      vertex -2.000000e+001  2.000000e+001  3.000000e+000
      vertex -2.168072e+000  1.691500e+001  3.000000e+000
      vertex  2.000000e+001  2.000000e+001  3.000000e+000
    endloop
  endfacet
  facet normal  0.000000e+000  0.000000e+000  9.999999e-001
    outer loop
      vertex  2.000000e+001  2.000000e+001  3.000000e+000
      vertex -2.168072e+000  1.691500e+001  3.000000e+000
      vertex  1.831928e+000  1.691500e+001  3.000000e+000
    endloop
  endfacet
  facet normal  0.000000e+000 -1.000000e+000  0.000000e+000
    outer loop
      vertex -2.169295e+000 -6.084744e+000  0.000000e+000
      vertex  1.830705e+000 -6.084744e+000  0.000000e+000
      vertex -2.169295e+000 -6.084744e+000  3.000000e+000
    endloop
  endfacet
  facet normal  0.000000e+000 -1.000000e+000  0.000000e+000
    outer loop
      vertex -2.169295e+000 -6.084744e+000  3.000000e+000
      vertex  1.830705e+000 -6.084744e+000  0.000000e+000
      vertex  1.830705e+000 -6.084744e+000  3.000000e+000
    endloop
  endfacet
  facet normal -8.451514e-001  5.345271e-001  0.000000e+000
    outer loop
      vertex  1.830705e+000 -6.084744e+000  0.000000e+000
      vertex -1.308727e-002 -9.000000e+000  0.000000e+000
      vertex  1.830705e+000 -6.084744e+000  3.000000e+000
    endloop
  endfacet
  facet normal -8.451514e-001  5.345271e-001  0.000000e+000
    outer loop
      vertex  1.830705e+000 -6.084744e+000  3.000000e+000
      vertex -1.308727e-002 -9.000000e+000  0.000000e+000
      vertex -1.308727e-002 -9.000000e+000  3.000000e+000
    endloop
  endfacet
  facet normal  0.000000e+000 -1.000000e+000  0.000000e+000
    outer loop
      vertex  1.486913e+000 -9.000000e+000  3.000000e+000
      vertex -1.308727e-002 -9.000000e+000  3.000000e+000
      vertex  1.486913e+000 -9.000000e+000  0.000000e+000
    endloop
  endfacet
  facet normal  0.000000e+000 -1.000000e+000  0.000000e+000
    outer loop
      vertex  1.486913e+000 -9.000000e+000  0.000000e+000
      vertex -1.308727e-002 -9.000000e+000  3.000000e+000
      vertex -1.308727e-002 -9.000000e+000  0.000000e+000
    endloop
  endfacet
  facet normal -8.921441e-001  4.517509e-001  0.000000e+000
    outer loop
      vertex  9.992007e-016 -1.193644e+001  0.000000e+000
      vertex  9.992007e-016 -1.193644e+001  3.000000e+000
      vertex  1.486913e+000 -9.000000e+000  0.000000e+000
    endloop
  endfacet
  facet normal -8.921441e-001  4.517509e-001  0.000000e+000
    outer loop
      vertex  1.486913e+000 -9.000000e+000  0.000000e+000
      vertex  9.992007e-016 -1.193644e+001  3.000000e+000
      vertex  1.486913e+000 -9.000000e+000  3.000000e+000
    endloop
  endfacet
  facet normal  0.000000e+000 -1.000000e+000  0.000000e+000
    outer loop
      vertex  1.500000e+000 -1.193644e+001  3.000000e+000
      vertex  9.992007e-016 -1.193644e+001  3.000000e+000
      vertex  1.500000e+000 -1.193644e+001  0.000000e+000
    endloop
  endfacet
  facet normal  0.000000e+000 -1.000000e+000  0.000000e+000
    outer loop
      vertex  1.500000e+000 -1.193644e+001  0.000000e+000
      vertex  9.992007e-016 -1.193644e+001  3.000000e+000
      vertex  9.992007e-016 -1.193644e+001  0.000000e+000
    endloop
  endfacet
  facet normal -8.768395e-001  4.807831e-001  0.000000e+000
    outer loop
      vertex -1.195102e+000 -1.685170e+001  0.000000e+000
      vertex -1.195102e+000 -1.685170e+001  3.000000e+000
      vertex  1.500000e+000 -1.193644e+001  0.000000e+000
    endloop
  endfacet
  facet normal -8.768395e-001  4.807831e-001  0.000000e+000
    outer loop
      vertex  1.500000e+000 -1.193644e+001  0.000000e+000
      vertex -1.195102e+000 -1.685170e+001  3.000000e+000
      vertex  1.500000e+000 -1.193644e+001  3.000000e+000
    endloop
  endfacet
  facet normal  9.788140e-001 -2.047514e-001  0.000000e+000
    outer loop
      vertex -3.760961e-001 -1.293644e+001  0.000000e+000
      vertex -3.760961e-001 -1.293644e+001  3.000000e+000
      vertex -1.195102e+000 -1.685170e+001  0.000000e+000
    endloop
  endfacet
  facet normal  9.788140e-001 -2.047514e-001  0.000000e+000
    outer loop
      vertex -1.195102e+000 -1.685170e+001  0.000000e+000
      vertex -3.760961e-001 -1.293644e+001  3.000000e+000
      vertex -1.195102e+000 -1.685170e+001  3.000000e+000
    endloop
  endfacet
  facet normal  0.000000e+000  9.999999e-001  0.000000e+000
    outer loop
      vertex -2.017234e+000 -1.293644e+001  3.000000e+000
      vertex -3.760961e-001 -1.293644e+001  3.000000e+000
      vertex -2.017234e+000 -1.293644e+001  0.000000e+000
    endloop
  endfacet
  facet normal  0.000000e+000  9.999999e-001  0.000000e+000
    outer loop
      vertex -2.017234e+000 -1.293644e+001  0.000000e+000
      vertex -3.760961e-001 -1.293644e+001  3.000000e+000
      vertex -3.760961e-001 -1.293644e+001  0.000000e+000
    endloop
  endfacet
  facet normal  9.788140e-001 -2.047514e-001  0.000000e+000
    outer loop
      vertex -1.402980e+000 -1.000000e+001  3.000000e+000
      vertex -2.017234e+000 -1.293644e+001  3.000000e+000
      vertex -1.402980e+000 -1.000000e+001  0.000000e+000
    endloop
  endfacet
  facet normal  9.788140e-001 -2.047514e-001  0.000000e+000
    outer loop
      vertex -1.402980e+000 -1.000000e+001  0.000000e+000
      vertex -2.017234e+000 -1.293644e+001  3.000000e+000
      vertex -2.017234e+000 -1.293644e+001  0.000000e+000
    endloop
  endfacet
  facet normal  0.000000e+000  1.000000e+000  0.000000e+000
    outer loop
      vertex -2.988301e+000 -1.000000e+001  3.000000e+000
      vertex -1.402980e+000 -1.000000e+001  3.000000e+000
      vertex -2.988301e+000 -1.000000e+001  0.000000e+000
    endloop
  endfacet
  facet normal  0.000000e+000  1.000000e+000  0.000000e+000
    outer loop
      vertex -2.988301e+000 -1.000000e+001  0.000000e+000
      vertex -1.402980e+000 -1.000000e+001  3.000000e+000
      vertex -1.402980e+000 -1.000000e+001  0.000000e+000
    endloop
  endfacet
  facet normal  9.788141e-001 -2.047515e-001  0.000000e+000
    outer loop
      vertex -2.169295e+000 -6.084744e+000  0.000000e+000
      vertex -2.169295e+000 -6.084744e+000  3.000000e+000
      vertex -2.988301e+000 -1.000000e+001  0.000000e+000
    endloop
  endfacet
  facet normal  9.788141e-001 -2.047515e-001  0.000000e+000
    outer loop
      vertex -2.988301e+000 -1.000000e+001  0.000000e+000
      vertex -2.169295e+000 -6.084744e+000  3.000000e+000
      vertex -2.988301e+000 -1.000000e+001  3.000000e+000
    endloop
  endfacet
  facet normal  0.000000e+000 -1.000000e+000  0.000000e+000
    outer loop
      vertex -2.168072e+000  1.691500e+001  0.000000e+000
      vertex  1.831928e+000  1.691500e+001  0.000000e+000
      vertex -2.168072e+000  1.691500e+001  3.000000e+000
    endloop
  endfacet
  facet normal  0.000000e+000 -1.000000e+000  0.000000e+000
    outer loop
      vertex -2.168072e+000  1.691500e+001  3.000000e+000
      vertex  1.831928e+000  1.691500e+001  0.000000e+000
      vertex  1.831928e+000  1.691500e+001  3.000000e+000
    endloop
  endfacet
  facet normal -8.449700e-001  5.348136e-001  0.000000e+000
    outer loop
      vertex  1.831928e+000  1.691500e+001  0.000000e+000
      vertex -1.308727e-002  1.400000e+001  0.000000e+000
      vertex  1.831928e+000  1.691500e+001  3.000000e+000
    endloop
  endfacet
  facet normal -8.449700e-001  5.348136e-001  0.000000e+000
    outer loop
      vertex  1.831928e+000  1.691500e+001  3.000000e+000
      vertex -1.308727e-002  1.400000e+001  0.000000e+000
      vertex -1.308727e-002  1.400000e+001  3.000000e+000
    endloop
  endfacet
  facet normal  0.000000e+000 -1.000000e+000  0.000000e+000
    outer loop
      vertex  1.486913e+000  1.400000e+001  3.000000e+000
      vertex -1.308727e-002  1.400000e+001  3.000000e+000
      vertex  1.486913e+000  1.400000e+001  0.000000e+000
    endloop
  endfacet
  facet normal  0.000000e+000 -1.000000e+000  0.000000e+000
    outer loop
      vertex  1.486913e+000  1.400000e+001  0.000000e+000
      vertex -1.308727e-002  1.400000e+001  3.000000e+000
      vertex -1.308727e-002  1.400000e+001  0.000000e+000
    endloop
  endfacet
  facet normal -8.921322e-001  4.517745e-001  0.000000e+000
    outer loop
      vertex -2.664535e-015  1.106375e+001  0.000000e+000
      vertex -2.664535e-015  1.106375e+001  3.000000e+000
      vertex  1.486913e+000  1.400000e+001  0.000000e+000
    endloop
  endfacet
  facet normal -8.921322e-001  4.517745e-001  0.000000e+000
    outer loop
      vertex  1.486913e+000  1.400000e+001  0.000000e+000
      vertex -2.664535e-015  1.106375e+001  3.000000e+000
      vertex  1.486913e+000  1.400000e+001  3.000000e+000
    endloop
  endfacet
  facet normal  0.000000e+000 -1.000000e+000  0.000000e+000
    outer loop
      vertex  1.500000e+000  1.106375e+001  3.000000e+000
      vertex -2.664535e-015  1.106375e+001  3.000000e+000
      vertex  1.500000e+000  1.106375e+001  0.000000e+000
    endloop
  endfacet
  facet normal  0.000000e+000 -1.000000e+000  0.000000e+000
    outer loop
      vertex  1.500000e+000  1.106375e+001  0.000000e+000
      vertex -2.664535e-015  1.106375e+001  3.000000e+000
      vertex -2.664535e-015  1.106375e+001  0.000000e+000
    endloop
  endfacet
  facet normal -8.766680e-001  4.810957e-001  0.000000e+000
    outer loop
      vertex -1.197242e+000  6.148750e+000  0.000000e+000
      vertex -1.197242e+000  6.148750e+000  3.000000e+000
      vertex  1.500000e+000  1.106375e+001  0.000000e+000
    endloop
  endfacet
  facet normal -8.766680e-001  4.810957e-001  0.000000e+000
    outer loop
      vertex  1.500000e+000  1.106375e+001  0.000000e+000
      vertex -1.197242e+000  6.148750e+000  3.000000e+000
      vertex  1.500000e+000  1.106375e+001  3.000000e+000
    endloop
  endfacet
  facet normal  9.787500e-001 -2.050571e-001  0.000000e+000
    outer loop
      vertex -3.770133e-001  1.006375e+001  0.000000e+000
      vertex -3.770133e-001  1.006375e+001  3.000000e+000
      vertex -1.197242e+000  6.148750e+000  0.000000e+000
    endloop
  endfacet
  facet normal  9.787500e-001 -2.050571e-001  0.000000e+000
    outer loop
      vertex -1.197242e+000  6.148750e+000  0.000000e+000
      vertex -3.770133e-001  1.006375e+001  3.000000e+000
      vertex -1.197242e+000  6.148750e+000  3.000000e+000
    endloop
  endfacet
  facet normal  0.000000e+000  9.999999e-001  0.000000e+000
    outer loop
      vertex -2.018151e+000  1.006375e+001  3.000000e+000
      vertex -3.770133e-001  1.006375e+001  3.000000e+000
      vertex -2.018151e+000  1.006375e+001  0.000000e+000
    endloop
  endfacet
  facet normal  0.000000e+000  9.999999e-001  0.000000e+000
    outer loop
      vertex -2.018151e+000  1.006375e+001  0.000000e+000
      vertex -3.770133e-001  1.006375e+001  3.000000e+000
      vertex -3.770133e-001  1.006375e+001  0.000000e+000
    endloop
  endfacet
  facet normal  9.787500e-001 -2.050572e-001  0.000000e+000
    outer loop
      vertex -1.402980e+000  1.300000e+001  3.000000e+000
      vertex -2.018151e+000  1.006375e+001  3.000000e+000
      vertex -1.402980e+000  1.300000e+001  0.000000e+000
    endloop
  endfacet
  facet normal  9.787500e-001 -2.050572e-001  0.000000e+000
    outer loop
      vertex -1.402980e+000  1.300000e+001  0.000000e+000
      vertex -2.018151e+000  1.006375e+001  3.000000e+000
      vertex -2.018151e+000  1.006375e+001  0.000000e+000
    endloop
  endfacet
  facet normal  0.000000e+000  1.000000e+000  0.000000e+000
    outer loop
      vertex -2.988301e+000  1.300000e+001  3.000000e+000
      vertex -1.402980e+000  1.300000e+001  3.000000e+000
      vertex -2.988301e+000  1.300000e+001  0.000000e+000
    endloop
  endfacet
  facet normal  0.000000e+000  1.000000e+000  0.000000e+000
    outer loop
      vertex -2.988301e+000  1.300000e+001  0.000000e+000
      vertex -1.402980e+000  1.300000e+001  3.000000e+000
      vertex -1.402980e+000  1.300000e+001  0.000000e+000
    endloop
  endfacet
  facet normal  9.787500e-001 -2.050572e-001  0.000000e+000
    outer loop
      vertex -2.168072e+000  1.691500e+001  0.000000e+000
      vertex -2.168072e+000  1.691500e+001  3.000000e+000
      vertex -2.988301e+000  1.300000e+001  0.000000e+000
    endloop
  endfacet
  facet normal  9.787500e-001 -2.050572e-001  0.000000e+000
    outer loop
      vertex -2.988301e+000  1.300000e+001  0.000000e+000
      vertex -2.168072e+000  1.691500e+001  3.000000e+000
      vertex -2.988301e+000  1.300000e+001  3.000000e+000
    endloop
  endfacet
  facet normal  0.000000e+000  1.000000e+000  0.000000e+000
    outer loop
      vertex -7.000000e-001  3.750000e+000  3.000000e+000
      vertex -7.000000e-001  3.750000e+000  6.000000e+000
      vertex  7.000000e-001  3.750000e+000  3.000000e+000
    endloop
  endfacet
  facet normal  0.000000e+000  1.000000e+000  -0.000000e+000
    outer loop
      vertex  7.000000e-001  3.750000e+000  3.000000e+000
      vertex -7.000000e-001  3.750000e+000  6.000000e+000
      vertex  7.000000e-001  3.750000e+000  6.000000e+000
    endloop
  endfacet
  facet normal  1.000000e+000  0.000000e+000  0.000000e+000
    outer loop
      vertex  7.000000e-001 -3.750000e+000  6.000000e+000
      vertex  7.000000e-001 -3.750000e+000  3.000000e+000
      vertex  7.000000e-001  3.750000e+000  6.000000e+000
    endloop
  endfacet
  facet normal  1.000000e+000  0.000000e+000  0.000000e+000
    outer loop
      vertex  7.000000e-001  3.750000e+000  6.000000e+000
      vertex  7.000000e-001 -3.750000e+000  3.000000e+000
      vertex  7.000000e-001  3.750000e+000  3.000000e+000
    endloop
  endfacet
  facet normal  0.000000e+000 -1.000000e+000  -0.000000e+000
    outer loop
      vertex  7.000000e-001 -3.750000e+000  3.000000e+000
      vertex  7.000000e-001 -3.750000e+000  6.000000e+000
      vertex -7.000000e-001 -3.750000e+000  3.000000e+000
    endloop
  endfacet
  facet normal  0.000000e+000 -1.000000e+000  0.000000e+000
    outer loop
      vertex -7.000000e-001 -3.750000e+000  3.000000e+000
      vertex  7.000000e-001 -3.750000e+000  6.000000e+000
      vertex -7.000000e-001 -3.750000e+000  6.000000e+000
    endloop
  endfacet
  facet normal -1.000000e+000  0.000000e+000  0.000000e+000
    outer loop
      vertex -7.000000e-001  3.750000e+000  6.000000e+000
      vertex -7.000000e-001  3.750000e+000  3.000000e+000
      vertex -7.000000e-001 -3.750000e+000  6.000000e+000
    endloop
  endfacet
  facet normal -1.000000e+000  0.000000e+000  0.000000e+000
    outer loop
      vertex -7.000000e-001 -3.750000e+000  6.000000e+000
      vertex -7.000000e-001  3.750000e+000  3.000000e+000
      vertex -7.000000e-001 -3.750000e+000  3.000000e+000
    endloop
  endfacet
  facet normal  0.000000e+000  0.000000e+000  1.000000e+000
    outer loop
      vertex -7.000000e-001 -3.750000e+000  6.000000e+000
      vertex  7.000000e-001 -3.750000e+000  6.000000e+000
      vertex -7.000000e-001  3.750000e+000  6.000000e+000
    endloop
  endfacet
  facet normal  -0.000000e+000  0.000000e+000  1.000000e+000
    outer loop
      vertex -7.000000e-001  3.750000e+000  6.000000e+000
      vertex  7.000000e-001 -3.750000e+000  6.000000e+000
      vertex  7.000000e-001  3.750000e+000  6.000000e+000
    endloop
  endfacet
  facet normal  0.000000e+000  1.000000e+000  0.000000e+000
    outer loop
      vertex -2.000000e+001  2.000000e+001  3.000000e+000
      vertex  2.000000e+001  2.000000e+001  3.000000e+000
      vertex -2.000000e+001  2.000000e+001  0.000000e+000
    endloop
  endfacet
  facet normal  0.000000e+000  1.000000e+000  0.000000e+000
    outer loop
      vertex -2.000000e+001  2.000000e+001  0.000000e+000
      vertex  2.000000e+001  2.000000e+001  3.000000e+000
      vertex  2.000000e+001  2.000000e+001  0.000000e+000
    endloop
  endfacet
  facet normal  1.000000e+000  0.000000e+000  0.000000e+000
    outer loop
      vertex  2.000000e+001 -2.000000e+001  3.000000e+000
      vertex  2.000000e+001 -2.000000e+001  0.000000e+000
      vertex  2.000000e+001  2.000000e+001  3.000000e+000
    endloop
  endfacet
  facet normal  1.000000e+000  0.000000e+000  0.000000e+000
    outer loop
      vertex  2.000000e+001  2.000000e+001  3.000000e+000
      vertex  2.000000e+001 -2.000000e+001  0.000000e+000
      vertex  2.000000e+001  2.000000e+001  0.000000e+000
    endloop
  endfacet
  facet normal  0.000000e+000 -1.000000e+000  0.000000e+000
    outer loop
      vertex  2.000000e+001 -2.000000e+001  3.000000e+000
      vertex -2.000000e+001 -2.000000e+001  3.000000e+000
      vertex  2.000000e+001 -2.000000e+001  0.000000e+000
    endloop
  endfacet
  facet normal  0.000000e+000 -1.000000e+000  0.000000e+000
    outer loop
      vertex  2.000000e+001 -2.000000e+001  0.000000e+000
      vertex -2.000000e+001 -2.000000e+001  3.000000e+000
      vertex -2.000000e+001 -2.000000e+001  0.000000e+000
    endloop
  endfacet
  facet normal -1.000000e+000  0.000000e+000  0.000000e+000
    outer loop
      vertex -2.000000e+001  2.000000e+001  3.000000e+000
      vertex -2.000000e+001  2.000000e+001  0.000000e+000
      vertex -2.000000e+001 -2.000000e+001  3.000000e+000
    endloop
  endfacet
  facet normal -1.000000e+000  0.000000e+000  0.000000e+000
    outer loop
      vertex -2.000000e+001 -2.000000e+001  3.000000e+000
      vertex -2.000000e+001  2.000000e+001  0.000000e+000
      vertex -2.000000e+001 -2.000000e+001  0.000000e+000
    endloop
  endfacet
endsolid CATIA STL
