solid CATIA STL
  facet normal  0.000000e+000  -0.000000e+000  9.999999e-001
    outer loop
      vertex  2.000000e+000  5.400000e+000  3.000000e+000
      vertex  2.366117e+000  6.283884e+000  3.000000e+000
      vertex  3.000000e+000  1.801600e+001  3.000000e+000
    endloop
  endfacet
  facet normal  -0.000000e+000  0.000000e+000  1.000000e+000
    outer loop
      vertex  3.000000e+000  2.401600e+001  3.000000e+000
      vertex  2.000000e+000  2.300000e+001  3.000000e+000
      vertex  3.000000e+000  1.801600e+001  3.000000e+000
    endloop
  endfacet
  facet normal  -0.000000e+000  0.000000e+000  1.000000e+000
    outer loop
      vertex  2.000000e+000  6.100000e+001  3.000000e+000
      vertex  0.000000e+000  6.100000e+001  3.000000e+000
      vertex  1.500000e+000  4.688556e+001  3.000000e+000
    endloop
  endfacet
  facet normal  0.000000e+000  0.000000e+000  1.000000e+000
    outer loop
      vertex  2.000000e+000  6.100000e+001  3.000000e+000
      vertex  1.500000e+000  4.688556e+001  3.000000e+000
      vertex  3.400000e+000  7.470000e+001  3.000000e+000
    endloop
  endfacet
  facet normal  0.000000e+000  0.000000e+000  9.999999e-001
    outer loop
      vertex  2.000000e+000  6.100000e+001  3.000000e+000
      vertex  3.400000e+000  7.470000e+001  3.000000e+000
      vertex  2.516117e+000  7.506612e+001  3.000000e+000
    endloop
  endfacet
  facet normal  0.000000e+000  0.000000e+000  1.000000e+000
    outer loop
      vertex  2.000000e+000  6.100000e+001  3.000000e+000
      vertex  2.516117e+000  7.506612e+001  3.000000e+000
      vertex  2.000000e+000  6.600000e+001  3.000000e+000
    endloop
  endfacet
  facet normal  0.000000e+000  -0.000000e+000  9.999999e-001
    outer loop
      vertex -2.339700e-015  6.600000e+001  3.000000e+000
      vertex  2.000000e+000  6.600000e+001  3.000000e+000
      vertex  2.516117e+000  7.506612e+001  3.000000e+000
    endloop
  endfacet
  facet normal  0.000000e+000  0.000000e+000  1.000000e+000
    outer loop
      vertex -2.339700e-015  6.600000e+001  3.000000e+000
      vertex  2.516117e+000  7.506612e+001  3.000000e+000
      vertex  2.150000e+000  7.595000e+001  3.000000e+000
    endloop
  endfacet
  facet normal  0.000000e+000  0.000000e+000  1.000000e+000
    outer loop
      vertex -2.339700e-015  6.600000e+001  3.000000e+000
      vertex  2.150000e+000  7.595000e+001  3.000000e+000
      vertex  0.000000e+000  7.900000e+001  3.000000e+000
    endloop
  endfacet
  facet normal  -0.000000e+000  0.000000e+000  1.000000e+000
    outer loop
      vertex  6.000000e+000  7.900000e+001  3.000000e+000
      vertex  3.400000e+000  7.720000e+001  3.000000e+000
      vertex  4.283884e+000  7.683389e+001  3.000000e+000
    endloop
  endfacet
  facet normal  -0.000000e+000  0.000000e+000  1.000000e+000
    outer loop
      vertex  6.000000e+000  7.900000e+001  3.000000e+000
      vertex  4.283884e+000  7.683389e+001  3.000000e+000
      vertex  4.650000e+000  7.595000e+001  3.000000e+000
    endloop
  endfacet
  facet normal  -0.000000e+000  0.000000e+000  1.000000e+000
    outer loop
      vertex  6.000000e+000  7.900000e+001  3.000000e+000
      vertex  4.650000e+000  7.595000e+001  3.000000e+000
      vertex  4.283884e+000  7.506612e+001  3.000000e+000
    endloop
  endfacet
  facet normal  -0.000000e+000  0.000000e+000  9.999999e-001
    outer loop
      vertex  6.000000e+000  7.900000e+001  3.000000e+000
      vertex  4.283884e+000  7.506612e+001  3.000000e+000
      vertex  6.000000e+000  6.588556e+001  3.000000e+000
    endloop
  endfacet
  facet normal  -0.000000e+000  0.000000e+000  1.000000e+000
    outer loop
      vertex  6.000000e+000  7.900000e+001  3.000000e+000
      vertex  6.000000e+000  6.588556e+001  3.000000e+000
      vertex  3.450000e+001  1.301600e+001  3.000000e+000
    endloop
  endfacet
  facet normal  0.000000e+000  -0.000000e+000  1.000000e+000
    outer loop
      vertex  6.000000e+000  7.900000e+001  3.000000e+000
      vertex  3.450000e+001  1.301600e+001  3.000000e+000
      vertex  4.050000e+001  1.500000e+001  3.000000e+000
    endloop
  endfacet
  facet normal  -0.000000e+000  0.000000e+000  1.000000e+000
    outer loop
      vertex  4.050000e+001  1.500000e+001  3.000000e+000
      vertex  3.450000e+001  1.301600e+001  3.000000e+000
      vertex  3.775000e+001  3.800000e+000  3.000000e+000
    endloop
  endfacet
  facet normal  -0.000000e+000  0.000000e+000  9.999999e-001
    outer loop
      vertex  4.050000e+001  1.500000e+001  3.000000e+000
      vertex  3.775000e+001  3.800000e+000  3.000000e+000
      vertex  3.863388e+001  3.433883e+000  3.000000e+000
    endloop
  endfacet
  facet normal  -0.000000e+000  0.000000e+000  1.000000e+000
    outer loop
      vertex  4.050000e+001  1.500000e+001  3.000000e+000
      vertex  3.863388e+001  3.433883e+000  3.000000e+000
      vertex  4.050000e+001  0.000000e+000  3.000000e+000
    endloop
  endfacet
  facet normal  0.000000e+000  0.000000e+000  9.999999e-001
    outer loop
      vertex  2.750000e+001  2.000000e+000  3.000000e+000
      vertex  2.750000e+001  0.000000e+000  3.000000e+000
      vertex  3.775000e+001  1.300000e+000  3.000000e+000
    endloop
  endfacet
  facet normal  0.000000e+000  0.000000e+000  1.000000e+000
    outer loop
      vertex  2.750000e+001  2.000000e+000  3.000000e+000
      vertex  3.775000e+001  1.300000e+000  3.000000e+000
      vertex  3.686612e+001  1.666116e+000  3.000000e+000
    endloop
  endfacet
  facet normal  0.000000e+000  0.000000e+000  1.000000e+000
    outer loop
      vertex  2.750000e+001  2.000000e+000  3.000000e+000
      vertex  3.686612e+001  1.666116e+000  3.000000e+000
      vertex  3.650000e+001  2.550000e+000  3.000000e+000
    endloop
  endfacet
  facet normal  0.000000e+000  -0.000000e+000  1.000000e+000
    outer loop
      vertex  2.250000e+001  2.000000e+000  3.000000e+000
      vertex  2.750000e+001  2.000000e+000  3.000000e+000
      vertex  3.650000e+001  2.550000e+000  3.000000e+000
    endloop
  endfacet
  facet normal  0.000000e+000  -0.000000e+000  1.000000e+000
    outer loop
      vertex  2.250000e+001  2.000000e+000  3.000000e+000
      vertex  3.650000e+001  2.550000e+000  3.000000e+000
      vertex  3.686612e+001  3.433883e+000  3.000000e+000
    endloop
  endfacet
  facet normal  0.000000e+000  -0.000000e+000  9.999999e-001
    outer loop
      vertex  2.250000e+001  2.000000e+000  3.000000e+000
      vertex  3.686612e+001  3.433883e+000  3.000000e+000
      vertex  3.775000e+001  3.800000e+000  3.000000e+000
    endloop
  endfacet
  facet normal  0.000000e+000  0.000000e+000  1.000000e+000
    outer loop
      vertex  0.000000e+000  0.000000e+000  3.000000e+000
      vertex  6.000000e+000  5.015995e+000  3.000000e+000
      vertex  4.133883e+000  4.516117e+000  3.000000e+000
    endloop
  endfacet
  facet normal  0.000000e+000  0.000000e+000  1.000000e+000
    outer loop
      vertex  0.000000e+000  0.000000e+000  3.000000e+000
      vertex  4.133883e+000  4.516117e+000  3.000000e+000
      vertex  3.250000e+000  4.150000e+000  3.000000e+000
    endloop
  endfacet
  facet normal  0.000000e+000  0.000000e+000  1.000000e+000
    outer loop
      vertex  0.000000e+000  0.000000e+000  3.000000e+000
      vertex  3.250000e+000  4.150000e+000  3.000000e+000
      vertex  2.366117e+000  4.516117e+000  3.000000e+000
    endloop
  endfacet
  facet normal  0.000000e+000  0.000000e+000  9.999999e-001
    outer loop
      vertex  0.000000e+000  0.000000e+000  3.000000e+000
      vertex  2.366117e+000  4.516117e+000  3.000000e+000
      vertex  2.000000e+000  5.400000e+000  3.000000e+000
    endloop
  endfacet
  facet normal  0.000000e+000  -0.000000e+000  1.000000e+000
    outer loop
      vertex  0.000000e+000  0.000000e+000  3.000000e+000
      vertex  2.000000e+000  5.400000e+000  3.000000e+000
      vertex  3.000000e+000  1.801600e+001  3.000000e+000
    endloop
  endfacet
  facet normal  0.000000e+000  0.000000e+000  1.000000e+000
    outer loop
      vertex  0.000000e+000  0.000000e+000  3.000000e+000
      vertex  3.000000e+000  1.801600e+001  3.000000e+000
      vertex  2.000000e+000  2.300000e+001  3.000000e+000
    endloop
  endfacet
  facet normal  0.000000e+000  0.000000e+000  1.000000e+000
    outer loop
      vertex  0.000000e+000  0.000000e+000  3.000000e+000
      vertex  2.000000e+000  2.300000e+001  3.000000e+000
      vertex  0.000000e+000  2.300000e+001  3.000000e+000
    endloop
  endfacet
  facet normal  0.000000e+000  0.000000e+000  1.000000e+000
    outer loop
      vertex  2.000000e+000  2.800000e+001  3.000000e+000
      vertex  2.000000e+000  2.300000e+001  3.000000e+000
      vertex  3.000000e+000  2.401600e+001  3.000000e+000
    endloop
  endfacet
  facet normal  0.000000e+000  0.000000e+000  1.000000e+000
    outer loop
      vertex  2.000000e+000  2.800000e+001  3.000000e+000
      vertex  3.000000e+000  2.401600e+001  3.000000e+000
      vertex  1.500000e+000  4.338556e+001  3.000000e+000
    endloop
  endfacet
  facet normal  0.000000e+000  0.000000e+000  1.000000e+000
    outer loop
      vertex  2.000000e+000  2.800000e+001  3.000000e+000
      vertex  1.500000e+000  4.338556e+001  3.000000e+000
      vertex  1.332053e-016  2.800000e+001  3.000000e+000
    endloop
  endfacet
  facet normal  0.000000e+000  -0.000000e+000  1.000000e+000
    outer loop
      vertex  0.000000e+000  7.900000e+001  3.000000e+000
      vertex  2.150000e+000  7.595000e+001  3.000000e+000
      vertex  2.516117e+000  7.683389e+001  3.000000e+000
    endloop
  endfacet
  facet normal  0.000000e+000  -0.000000e+000  1.000000e+000
    outer loop
      vertex  0.000000e+000  7.900000e+001  3.000000e+000
      vertex  2.516117e+000  7.683389e+001  3.000000e+000
      vertex  3.400000e+000  7.720000e+001  3.000000e+000
    endloop
  endfacet
  facet normal  0.000000e+000  -0.000000e+000  1.000000e+000
    outer loop
      vertex  0.000000e+000  7.900000e+001  3.000000e+000
      vertex  3.400000e+000  7.720000e+001  3.000000e+000
      vertex  6.000000e+000  7.900000e+001  3.000000e+000
    endloop
  endfacet
  facet normal  0.000000e+000  0.000000e+000  1.000000e+000
    outer loop
      vertex  4.050000e+001  0.000000e+000  3.000000e+000
      vertex  3.863388e+001  3.433883e+000  3.000000e+000
      vertex  3.900000e+001  2.550000e+000  3.000000e+000
    endloop
  endfacet
  facet normal  0.000000e+000  0.000000e+000  1.000000e+000
    outer loop
      vertex  4.050000e+001  0.000000e+000  3.000000e+000
      vertex  3.900000e+001  2.550000e+000  3.000000e+000
      vertex  3.863388e+001  1.666116e+000  3.000000e+000
    endloop
  endfacet
  facet normal  0.000000e+000  0.000000e+000  1.000000e+000
    outer loop
      vertex  4.050000e+001  0.000000e+000  3.000000e+000
      vertex  3.863388e+001  1.666116e+000  3.000000e+000
      vertex  3.775000e+001  1.300000e+000  3.000000e+000
    endloop
  endfacet
  facet normal  0.000000e+000  0.000000e+000  1.000000e+000
    outer loop
      vertex  4.050000e+001  0.000000e+000  3.000000e+000
      vertex  3.775000e+001  1.300000e+000  3.000000e+000
      vertex  2.750000e+001  0.000000e+000  3.000000e+000
    endloop
  endfacet
  facet normal  0.000000e+000  0.000000e+000  1.000000e+000
    outer loop
      vertex  0.000000e+000  0.000000e+000  3.000000e+000
      vertex  2.250000e+001 -3.552714e-015  3.000000e+000
      vertex  6.000000e+000  5.015995e+000  3.000000e+000
    endloop
  endfacet
  facet normal  0.000000e+000  0.000000e+000  1.000000e+000
    outer loop
      vertex  6.000000e+000  5.015995e+000  3.000000e+000
      vertex  2.250000e+001 -3.552714e-015  3.000000e+000
      vertex  2.250000e+001  2.000000e+000  3.000000e+000
    endloop
  endfacet
  facet normal  0.000000e+000  -0.000000e+000  1.000000e+000
    outer loop
      vertex  6.000000e+000  5.015995e+000  3.000000e+000
      vertex  2.250000e+001  2.000000e+000  3.000000e+000
      vertex  3.450000e+001  5.015995e+000  3.000000e+000
    endloop
  endfacet
  facet normal  0.000000e+000  0.000000e+000  1.000000e+000
    outer loop
      vertex  3.450000e+001  5.015995e+000  3.000000e+000
      vertex  2.250000e+001  2.000000e+000  3.000000e+000
      vertex  3.775000e+001  3.800000e+000  3.000000e+000
    endloop
  endfacet
  facet normal  0.000000e+000  0.000000e+000  9.999999e-001
    outer loop
      vertex  3.450000e+001  5.015995e+000  3.000000e+000
      vertex  3.775000e+001  3.800000e+000  3.000000e+000
      vertex  3.450000e+001  1.301600e+001  3.000000e+000
    endloop
  endfacet
  facet normal  0.000000e+000  0.000000e+000  1.000000e+000
    outer loop
      vertex  3.000000e+000  1.801600e+001  3.000000e+000
      vertex  2.366117e+000  6.283884e+000  3.000000e+000
      vertex  6.000000e+000  1.801600e+001  3.000000e+000
    endloop
  endfacet
  facet normal  0.000000e+000  0.000000e+000  1.000000e+000
    outer loop
      vertex  6.000000e+000  1.801600e+001  3.000000e+000
      vertex  2.366117e+000  6.283884e+000  3.000000e+000
      vertex  3.250000e+000  6.650000e+000  3.000000e+000
    endloop
  endfacet
  facet normal  -0.000000e+000  0.000000e+000  1.000000e+000
    outer loop
      vertex  6.000000e+000  1.801600e+001  3.000000e+000
      vertex  3.250000e+000  6.650000e+000  3.000000e+000
      vertex  4.133883e+000  6.283884e+000  3.000000e+000
    endloop
  endfacet
  facet normal  0.000000e+000  0.000000e+000  1.000000e+000
    outer loop
      vertex  6.000000e+000  2.401600e+001  3.000000e+000
      vertex  6.000000e+000  3.701600e+001  3.000000e+000
      vertex  3.000000e+000  2.401600e+001  3.000000e+000
    endloop
  endfacet
  facet normal  0.000000e+000  0.000000e+000  1.000000e+000
    outer loop
      vertex  3.000000e+000  2.401600e+001  3.000000e+000
      vertex  6.000000e+000  3.701600e+001  3.000000e+000
      vertex  5.000000e+000  3.701600e+001  3.000000e+000
    endloop
  endfacet
  facet normal  0.000000e+000  0.000000e+000  1.000000e+000
    outer loop
      vertex  3.000000e+000  2.401600e+001  3.000000e+000
      vertex  5.000000e+000  3.701600e+001  3.000000e+000
      vertex  1.500000e+000  4.338556e+001  3.000000e+000
    endloop
  endfacet
  facet normal  -0.000000e+000  0.000000e+000  1.000000e+000
    outer loop
      vertex  1.500000e+000  4.338556e+001  3.000000e+000
      vertex  5.000000e+000  3.701600e+001  3.000000e+000
      vertex  5.000000e+000  4.338556e+001  3.000000e+000
    endloop
  endfacet
  facet normal  0.000000e+000  0.000000e+000  1.000000e+000
    outer loop
      vertex  1.500000e+000  4.688556e+001  3.000000e+000
      vertex  6.000000e+000  4.688556e+001  3.000000e+000
      vertex  3.400000e+000  7.470000e+001  3.000000e+000
    endloop
  endfacet
  facet normal  0.000000e+000  0.000000e+000  1.000000e+000
    outer loop
      vertex  3.400000e+000  7.470000e+001  3.000000e+000
      vertex  6.000000e+000  4.688556e+001  3.000000e+000
      vertex  6.000000e+000  6.588556e+001  3.000000e+000
    endloop
  endfacet
  facet normal  0.000000e+000  0.000000e+000  1.000000e+000
    outer loop
      vertex  3.400000e+000  7.470000e+001  3.000000e+000
      vertex  6.000000e+000  6.588556e+001  3.000000e+000
      vertex  4.283884e+000  7.506612e+001  3.000000e+000
    endloop
  endfacet
  facet normal  -0.000000e+000  0.000000e+000  1.000000e+000
    outer loop
      vertex  6.000000e+000  1.801600e+001  3.000000e+000
      vertex  4.133883e+000  6.283884e+000  3.000000e+000
      vertex  6.000000e+000  5.015995e+000  3.000000e+000
    endloop
  endfacet
  facet normal  0.000000e+000  0.000000e+000  9.999999e-001
    outer loop
      vertex  6.000000e+000  5.015995e+000  3.000000e+000
      vertex  4.133883e+000  6.283884e+000  3.000000e+000
      vertex  4.500000e+000  5.400000e+000  3.000000e+000
    endloop
  endfacet
  facet normal  0.000000e+000  0.000000e+000  1.000000e+000
    outer loop
      vertex  6.000000e+000  5.015995e+000  3.000000e+000
      vertex  4.500000e+000  5.400000e+000  3.000000e+000
      vertex  4.133883e+000  4.516117e+000  3.000000e+000
    endloop
  endfacet
  facet normal  0.000000e+000  0.000000e+000  1.000000e+000
    outer loop
      vertex  1.332053e-016  2.800000e+001  3.000000e+000
      vertex  1.500000e+000  4.338556e+001  3.000000e+000
      vertex  0.000000e+000  6.100000e+001  3.000000e+000
    endloop
  endfacet
  facet normal  0.000000e+000  0.000000e+000  1.000000e+000
    outer loop
      vertex  0.000000e+000  6.100000e+001  3.000000e+000
      vertex  1.500000e+000  4.338556e+001  3.000000e+000
      vertex  1.500000e+000  4.688556e+001  3.000000e+000
    endloop
  endfacet
  facet normal -1.000000e+000  0.000000e+000  0.000000e+000
    outer loop
      vertex  0.000000e+000  2.300000e+001  3.000000e+000
      vertex  0.000000e+000  2.300000e+001  0.000000e+000
      vertex  0.000000e+000  0.000000e+000  3.000000e+000
    endloop
  endfacet
  facet normal -1.000000e+000  0.000000e+000  0.000000e+000
    outer loop
      vertex  0.000000e+000  0.000000e+000  3.000000e+000
      vertex  0.000000e+000  2.300000e+001  0.000000e+000
      vertex  0.000000e+000  0.000000e+000  0.000000e+000
    endloop
  endfacet
  facet normal -1.000000e+000  1.799769e-016  0.000000e+000
    outer loop
      vertex  0.000000e+000  7.900000e+001  3.000000e+000
      vertex  0.000000e+000  7.900000e+001  0.000000e+000
      vertex -2.339700e-015  6.600000e+001  3.000000e+000
    endloop
  endfacet
  facet normal -1.000000e+000  0.000000e+000 -7.799001e-016
    outer loop
      vertex -2.339700e-015  6.600000e+001  3.000000e+000
      vertex  0.000000e+000  7.900000e+001  0.000000e+000
      vertex  0.000000e+000  6.600000e+001  0.000000e+000
    endloop
  endfacet
  facet normal -1.000000e+000 -4.036524e-018  0.000000e+000
    outer loop
      vertex  0.000000e+000  6.100000e+001  3.000000e+000
      vertex  0.000000e+000  6.100000e+001  0.000000e+000
      vertex  1.332053e-016  2.800000e+001  3.000000e+000
    endloop
  endfacet
  facet normal -1.000000e+000  0.000000e+000  4.440176e-017
    outer loop
      vertex  1.332053e-016  2.800000e+001  3.000000e+000
      vertex  0.000000e+000  6.100000e+001  0.000000e+000
      vertex  0.000000e+000  2.800000e+001  0.000000e+000
    endloop
  endfacet
  facet normal -1.578984e-016 -1.000000e+000  0.000000e+000
    outer loop
      vertex  0.000000e+000  0.000000e+000  3.000000e+000
      vertex  0.000000e+000  0.000000e+000  0.000000e+000
      vertex  2.250000e+001 -3.552714e-015  3.000000e+000
    endloop
  endfacet
  facet normal  0.000000e+000 -1.000000e+000 -1.184238e-015
    outer loop
      vertex  2.250000e+001 -3.552714e-015  3.000000e+000
      vertex  0.000000e+000  0.000000e+000  0.000000e+000
      vertex  2.250000e+001  0.000000e+000  0.000000e+000
    endloop
  endfacet
  facet normal  0.000000e+000 -1.000000e+000  0.000000e+000
    outer loop
      vertex  2.750000e+001  0.000000e+000  3.000000e+000
      vertex  2.750000e+001  0.000000e+000  0.000000e+000
      vertex  4.050000e+001  0.000000e+000  3.000000e+000
    endloop
  endfacet
  facet normal  0.000000e+000 -1.000000e+000  -0.000000e+000
    outer loop
      vertex  4.050000e+001  0.000000e+000  3.000000e+000
      vertex  2.750000e+001  0.000000e+000  0.000000e+000
      vertex  4.050000e+001  0.000000e+000  0.000000e+000
    endloop
  endfacet
  facet normal  0.000000e+000  0.000000e+000 -1.000000e+000
    outer loop
      vertex  3.000000e+000  1.801600e+001  0.000000e+000
      vertex  2.000000e+000  2.300000e+001  0.000000e+000
      vertex  3.000000e+000  2.401600e+001  0.000000e+000
    endloop
  endfacet
  facet normal  0.000000e+000  0.000000e+000 -1.000000e+000
    outer loop
      vertex  2.250000e+001  2.000000e+000  0.000000e+000
      vertex  2.250000e+001  0.000000e+000  0.000000e+000
      vertex  0.000000e+000  0.000000e+000  0.000000e+000
    endloop
  endfacet
  facet normal  0.000000e+000  0.000000e+000 -1.000000e+000
    outer loop
      vertex  2.250000e+001  2.000000e+000  0.000000e+000
      vertex  0.000000e+000  0.000000e+000  0.000000e+000
      vertex  6.000000e+000  5.015995e+000  0.000000e+000
    endloop
  endfacet
  facet normal  0.000000e+000  0.000000e+000 -1.000000e+000
    outer loop
      vertex  2.250000e+001  2.000000e+000  0.000000e+000
      vertex  6.000000e+000  5.015995e+000  0.000000e+000
      vertex  3.450000e+001  5.015995e+000  0.000000e+000
    endloop
  endfacet
  facet normal  0.000000e+000  0.000000e+000 -1.000000e+000
    outer loop
      vertex  2.250000e+001  2.000000e+000  0.000000e+000
      vertex  3.450000e+001  5.015995e+000  0.000000e+000
      vertex  2.750000e+001  2.000000e+000  0.000000e+000
    endloop
  endfacet
  facet normal  0.000000e+000  0.000000e+000 -1.000000e+000
    outer loop
      vertex  2.000000e+000  2.800000e+001  0.000000e+000
      vertex  0.000000e+000  2.800000e+001  0.000000e+000
      vertex  6.000000e+000  3.701600e+001  0.000000e+000
    endloop
  endfacet
  facet normal  0.000000e+000  -0.000000e+000 -1.000000e+000
    outer loop
      vertex  2.000000e+000  2.800000e+001  0.000000e+000
      vertex  6.000000e+000  3.701600e+001  0.000000e+000
      vertex  6.000000e+000  2.401600e+001  0.000000e+000
    endloop
  endfacet
  facet normal  0.000000e+000  0.000000e+000 -1.000000e+000
    outer loop
      vertex  2.000000e+000  2.800000e+001  0.000000e+000
      vertex  6.000000e+000  2.401600e+001  0.000000e+000
      vertex  3.000000e+000  2.401600e+001  0.000000e+000
    endloop
  endfacet
  facet normal  -0.000000e+000  0.000000e+000 -1.000000e+000
    outer loop
      vertex  2.000000e+000  2.800000e+001  0.000000e+000
      vertex  3.000000e+000  2.401600e+001  0.000000e+000
      vertex  2.000000e+000  2.300000e+001  0.000000e+000
    endloop
  endfacet
  facet normal  0.000000e+000  0.000000e+000 -1.000000e+000
    outer loop
      vertex  0.000000e+000  2.800000e+001  0.000000e+000
      vertex  0.000000e+000  6.100000e+001  0.000000e+000
      vertex  1.500000e+000  4.688556e+001  0.000000e+000
    endloop
  endfacet
  facet normal  0.000000e+000  -0.000000e+000 -1.000000e+000
    outer loop
      vertex  0.000000e+000  2.800000e+001  0.000000e+000
      vertex  1.500000e+000  4.688556e+001  0.000000e+000
      vertex  1.500000e+000  4.338556e+001  0.000000e+000
    endloop
  endfacet
  facet normal  0.000000e+000  -0.000000e+000 -1.000000e+000
    outer loop
      vertex  0.000000e+000  2.800000e+001  0.000000e+000
      vertex  1.500000e+000  4.338556e+001  0.000000e+000
      vertex  5.000000e+000  4.338556e+001  0.000000e+000
    endloop
  endfacet
  facet normal  0.000000e+000  -0.000000e+000 -1.000000e+000
    outer loop
      vertex  0.000000e+000  2.800000e+001  0.000000e+000
      vertex  5.000000e+000  4.338556e+001  0.000000e+000
      vertex  5.000000e+000  3.701600e+001  0.000000e+000
    endloop
  endfacet
  facet normal  0.000000e+000  -0.000000e+000 -1.000000e+000
    outer loop
      vertex  0.000000e+000  2.800000e+001  0.000000e+000
      vertex  5.000000e+000  3.701600e+001  0.000000e+000
      vertex  6.000000e+000  3.701600e+001  0.000000e+000
    endloop
  endfacet
  facet normal  0.000000e+000  -0.000000e+000 -1.000000e+000
    outer loop
      vertex  2.000000e+000  6.600000e+001  0.000000e+000
      vertex  6.000000e+000  7.900000e+001  0.000000e+000
      vertex  6.000000e+000  6.588556e+001  0.000000e+000
    endloop
  endfacet
  facet normal  0.000000e+000  0.000000e+000 -1.000000e+000
    outer loop
      vertex  6.000000e+000  6.588556e+001  0.000000e+000
      vertex  6.000000e+000  7.900000e+001  0.000000e+000
      vertex  4.050000e+001  1.500000e+001  0.000000e+000
    endloop
  endfacet
  facet normal  -0.000000e+000  0.000000e+000 -1.000000e+000
    outer loop
      vertex  6.000000e+000  6.588556e+001  0.000000e+000
      vertex  4.050000e+001  1.500000e+001  0.000000e+000
      vertex  3.450000e+001  1.301600e+001  0.000000e+000
    endloop
  endfacet
  facet normal  0.000000e+000  0.000000e+000 -1.000000e+000
    outer loop
      vertex  3.450000e+001  1.301600e+001  0.000000e+000
      vertex  4.050000e+001  1.500000e+001  0.000000e+000
      vertex  4.050000e+001  0.000000e+000  0.000000e+000
    endloop
  endfacet
  facet normal  0.000000e+000  0.000000e+000 -1.000000e+000
    outer loop
      vertex  3.450000e+001  1.301600e+001  0.000000e+000
      vertex  4.050000e+001  0.000000e+000  0.000000e+000
      vertex  3.450000e+001  5.015995e+000  0.000000e+000
    endloop
  endfacet
  facet normal  0.000000e+000  -0.000000e+000 -1.000000e+000
    outer loop
      vertex  3.450000e+001  5.015995e+000  0.000000e+000
      vertex  4.050000e+001  0.000000e+000  0.000000e+000
      vertex  2.750000e+001  0.000000e+000  0.000000e+000
    endloop
  endfacet
  facet normal  0.000000e+000  0.000000e+000 -1.000000e+000
    outer loop
      vertex  3.450000e+001  5.015995e+000  0.000000e+000
      vertex  2.750000e+001  0.000000e+000  0.000000e+000
      vertex  2.750000e+001  2.000000e+000  0.000000e+000
    endloop
  endfacet
  facet normal  0.000000e+000  0.000000e+000 -1.000000e+000
    outer loop
      vertex  6.000000e+000  6.588556e+001  0.000000e+000
      vertex  6.000000e+000  4.688556e+001  0.000000e+000
      vertex  2.000000e+000  6.600000e+001  0.000000e+000
    endloop
  endfacet
  facet normal  0.000000e+000  0.000000e+000 -1.000000e+000
    outer loop
      vertex  2.000000e+000  6.600000e+001  0.000000e+000
      vertex  6.000000e+000  4.688556e+001  0.000000e+000
      vertex  2.000000e+000  6.100000e+001  0.000000e+000
    endloop
  endfacet
  facet normal  0.000000e+000  0.000000e+000 -9.999999e-001
    outer loop
      vertex  6.000000e+000  4.688556e+001  0.000000e+000
      vertex  1.500000e+000  4.688556e+001  0.000000e+000
      vertex  2.000000e+000  6.100000e+001  0.000000e+000
    endloop
  endfacet
  facet normal  -0.000000e+000  0.000000e+000 -1.000000e+000
    outer loop
      vertex  2.000000e+000  6.100000e+001  0.000000e+000
      vertex  1.500000e+000  4.688556e+001  0.000000e+000
      vertex  0.000000e+000  6.100000e+001  0.000000e+000
    endloop
  endfacet
  facet normal  0.000000e+000  0.000000e+000 -1.000000e+000
    outer loop
      vertex  2.000000e+000  2.300000e+001  0.000000e+000
      vertex  3.000000e+000  1.801600e+001  0.000000e+000
      vertex  0.000000e+000  2.300000e+001  0.000000e+000
    endloop
  endfacet
  facet normal  0.000000e+000  0.000000e+000 -1.000000e+000
    outer loop
      vertex  0.000000e+000  2.300000e+001  0.000000e+000
      vertex  3.000000e+000  1.801600e+001  0.000000e+000
      vertex  0.000000e+000  0.000000e+000  0.000000e+000
    endloop
  endfacet
  facet normal  -0.000000e+000  0.000000e+000 -1.000000e+000
    outer loop
      vertex  3.000000e+000  1.801600e+001  0.000000e+000
      vertex  6.000000e+000  1.801600e+001  0.000000e+000
      vertex  0.000000e+000  0.000000e+000  0.000000e+000
    endloop
  endfacet
  facet normal  0.000000e+000  0.000000e+000 -1.000000e+000
    outer loop
      vertex  0.000000e+000  0.000000e+000  0.000000e+000
      vertex  6.000000e+000  1.801600e+001  0.000000e+000
      vertex  6.000000e+000  5.015995e+000  0.000000e+000
    endloop
  endfacet
  facet normal  0.000000e+000  0.000000e+000 -1.000000e+000
    outer loop
      vertex  0.000000e+000  6.600000e+001  0.000000e+000
      vertex  0.000000e+000  7.900000e+001  0.000000e+000
      vertex  2.000000e+000  6.600000e+001  0.000000e+000
    endloop
  endfacet
  facet normal  0.000000e+000  0.000000e+000 -1.000000e+000
    outer loop
      vertex  2.000000e+000  6.600000e+001  0.000000e+000
      vertex  0.000000e+000  7.900000e+001  0.000000e+000
      vertex  6.000000e+000  7.900000e+001  0.000000e+000
    endloop
  endfacet
  facet normal  0.000000e+000 -1.000000e+000  0.000000e+000
    outer loop
      vertex  0.000000e+000  6.600000e+001  0.000000e+000
      vertex  2.000000e+000  6.600000e+001  0.000000e+000
      vertex -2.339700e-015  6.600000e+001  3.000000e+000
    endloop
  endfacet
  facet normal  0.000000e+000 -1.000000e+000  0.000000e+000
    outer loop
      vertex -2.339700e-015  6.600000e+001  3.000000e+000
      vertex  2.000000e+000  6.600000e+001  0.000000e+000
      vertex  2.000000e+000  6.600000e+001  3.000000e+000
    endloop
  endfacet
  facet normal -1.000000e+000  -0.000000e+000  0.000000e+000
    outer loop
      vertex  2.000000e+000  6.100000e+001  3.000000e+000
      vertex  2.000000e+000  6.600000e+001  3.000000e+000
      vertex  2.000000e+000  6.100000e+001  0.000000e+000
    endloop
  endfacet
  facet normal -1.000000e+000  0.000000e+000  0.000000e+000
    outer loop
      vertex  2.000000e+000  6.100000e+001  0.000000e+000
      vertex  2.000000e+000  6.600000e+001  3.000000e+000
      vertex  2.000000e+000  6.600000e+001  0.000000e+000
    endloop
  endfacet
  facet normal  0.000000e+000  1.000000e+000  0.000000e+000
    outer loop
      vertex  2.000000e+000  6.100000e+001  0.000000e+000
      vertex  0.000000e+000  6.100000e+001  0.000000e+000
      vertex  2.000000e+000  6.100000e+001  3.000000e+000
    endloop
  endfacet
  facet normal  0.000000e+000  1.000000e+000  0.000000e+000
    outer loop
      vertex  2.000000e+000  6.100000e+001  3.000000e+000
      vertex  0.000000e+000  6.100000e+001  0.000000e+000
      vertex  0.000000e+000  6.100000e+001  3.000000e+000
    endloop
  endfacet
  facet normal  0.000000e+000 -1.000000e+000  0.000000e+000
    outer loop
      vertex  2.250000e+001  2.000000e+000  3.000000e+000
      vertex  2.250000e+001  2.000000e+000  0.000000e+000
      vertex  2.750000e+001  2.000000e+000  3.000000e+000
    endloop
  endfacet
  facet normal  0.000000e+000 -1.000000e+000  -0.000000e+000
    outer loop
      vertex  2.750000e+001  2.000000e+000  3.000000e+000
      vertex  2.250000e+001  2.000000e+000  0.000000e+000
      vertex  2.750000e+001  2.000000e+000  0.000000e+000
    endloop
  endfacet
  facet normal -1.000000e+000  0.000000e+000  0.000000e+000
    outer loop
      vertex  2.750000e+001  0.000000e+000  0.000000e+000
      vertex  2.750000e+001  0.000000e+000  3.000000e+000
      vertex  2.750000e+001  2.000000e+000  0.000000e+000
    endloop
  endfacet
  facet normal -1.000000e+000  0.000000e+000  0.000000e+000
    outer loop
      vertex  2.750000e+001  2.000000e+000  0.000000e+000
      vertex  2.750000e+001  0.000000e+000  3.000000e+000
      vertex  2.750000e+001  2.000000e+000  3.000000e+000
    endloop
  endfacet
  facet normal  1.000000e+000  0.000000e+000  0.000000e+000
    outer loop
      vertex  2.250000e+001  2.000000e+000  0.000000e+000
      vertex  2.250000e+001  2.000000e+000  3.000000e+000
      vertex  2.250000e+001  0.000000e+000  0.000000e+000
    endloop
  endfacet
  facet normal  1.000000e+000  0.000000e+000  -0.000000e+000
    outer loop
      vertex  2.250000e+001  0.000000e+000  0.000000e+000
      vertex  2.250000e+001  2.000000e+000  3.000000e+000
      vertex  2.250000e+001 -3.552714e-015  3.000000e+000
    endloop
  endfacet
  facet normal  0.000000e+000 -1.000000e+000  0.000000e+000
    outer loop
      vertex  0.000000e+000  2.800000e+001  0.000000e+000
      vertex  2.000000e+000  2.800000e+001  0.000000e+000
      vertex  1.332053e-016  2.800000e+001  3.000000e+000
    endloop
  endfacet
  facet normal  0.000000e+000 -1.000000e+000  0.000000e+000
    outer loop
      vertex  1.332053e-016  2.800000e+001  3.000000e+000
      vertex  2.000000e+000  2.800000e+001  0.000000e+000
      vertex  2.000000e+000  2.800000e+001  3.000000e+000
    endloop
  endfacet
  facet normal -1.000000e+000  -0.000000e+000  0.000000e+000
    outer loop
      vertex  2.000000e+000  2.300000e+001  3.000000e+000
      vertex  2.000000e+000  2.800000e+001  3.000000e+000
      vertex  2.000000e+000  2.300000e+001  0.000000e+000
    endloop
  endfacet
  facet normal -1.000000e+000  0.000000e+000  0.000000e+000
    outer loop
      vertex  2.000000e+000  2.300000e+001  0.000000e+000
      vertex  2.000000e+000  2.800000e+001  3.000000e+000
      vertex  2.000000e+000  2.800000e+001  0.000000e+000
    endloop
  endfacet
  facet normal  0.000000e+000  1.000000e+000  0.000000e+000
    outer loop
      vertex  2.000000e+000  2.300000e+001  0.000000e+000
      vertex  0.000000e+000  2.300000e+001  0.000000e+000
      vertex  2.000000e+000  2.300000e+001  3.000000e+000
    endloop
  endfacet
  facet normal  0.000000e+000  1.000000e+000  0.000000e+000
    outer loop
      vertex  2.000000e+000  2.300000e+001  3.000000e+000
      vertex  0.000000e+000  2.300000e+001  0.000000e+000
      vertex  0.000000e+000  2.300000e+001  3.000000e+000
    endloop
  endfacet
  facet normal  0.000000e+000  0.000000e+000  1.000000e+000
    outer loop
      vertex  2.366117e+000  6.283884e+000  6.000000e+000
      vertex  4.133883e+000  6.283884e+000  6.000000e+000
      vertex  3.250000e+000  6.650000e+000  6.000000e+000
    endloop
  endfacet
  facet normal  -0.000000e+000  0.000000e+000  1.000000e+000
    outer loop
      vertex  4.133883e+000  6.283884e+000  6.000000e+000
      vertex  2.366117e+000  6.283884e+000  6.000000e+000
      vertex  4.500000e+000  5.400000e+000  6.000000e+000
    endloop
  endfacet
  facet normal  0.000000e+000  0.000000e+000  1.000000e+000
    outer loop
      vertex  4.500000e+000  5.400000e+000  6.000000e+000
      vertex  2.366117e+000  6.283884e+000  6.000000e+000
      vertex  2.000000e+000  5.400000e+000  6.000000e+000
    endloop
  endfacet
  facet normal  -0.000000e+000  0.000000e+000  1.000000e+000
    outer loop
      vertex  4.500000e+000  5.400000e+000  6.000000e+000
      vertex  2.000000e+000  5.400000e+000  6.000000e+000
      vertex  4.133883e+000  4.516117e+000  6.000000e+000
    endloop
  endfacet
  facet normal  0.000000e+000  0.000000e+000  1.000000e+000
    outer loop
      vertex  4.133883e+000  4.516117e+000  6.000000e+000
      vertex  2.000000e+000  5.400000e+000  6.000000e+000
      vertex  2.366117e+000  4.516117e+000  6.000000e+000
    endloop
  endfacet
  facet normal  -0.000000e+000  0.000000e+000  1.000000e+000
    outer loop
      vertex  4.133883e+000  4.516117e+000  6.000000e+000
      vertex  2.366117e+000  4.516117e+000  6.000000e+000
      vertex  3.250000e+000  4.150000e+000  6.000000e+000
    endloop
  endfacet
  facet normal  9.238795e-001 -3.826834e-001  0.000000e+000
    outer loop
      vertex  4.500000e+000  5.400000e+000  3.000000e+000
      vertex  4.500000e+000  5.400000e+000  6.000000e+000
      vertex  4.133883e+000  4.516117e+000  3.000000e+000
    endloop
  endfacet
  facet normal  9.238795e-001 -3.826834e-001  0.000000e+000
    outer loop
      vertex  4.133883e+000  4.516117e+000  3.000000e+000
      vertex  4.500000e+000  5.400000e+000  6.000000e+000
      vertex  4.133883e+000  4.516117e+000  6.000000e+000
    endloop
  endfacet
  facet normal  3.826834e-001 -9.238795e-001  0.000000e+000
    outer loop
      vertex  4.133883e+000  4.516117e+000  3.000000e+000
      vertex  4.133883e+000  4.516117e+000  6.000000e+000
      vertex  3.250000e+000  4.150000e+000  3.000000e+000
    endloop
  endfacet
  facet normal  3.826834e-001 -9.238795e-001  0.000000e+000
    outer loop
      vertex  3.250000e+000  4.150000e+000  3.000000e+000
      vertex  4.133883e+000  4.516117e+000  6.000000e+000
      vertex  3.250000e+000  4.150000e+000  6.000000e+000
    endloop
  endfacet
  facet normal -3.826834e-001 -9.238795e-001  -0.000000e+000
    outer loop
      vertex  3.250000e+000  4.150000e+000  3.000000e+000
      vertex  3.250000e+000  4.150000e+000  6.000000e+000
      vertex  2.366117e+000  4.516117e+000  3.000000e+000
    endloop
  endfacet
  facet normal -3.826834e-001 -9.238795e-001  0.000000e+000
    outer loop
      vertex  2.366117e+000  4.516117e+000  3.000000e+000
      vertex  3.250000e+000  4.150000e+000  6.000000e+000
      vertex  2.366117e+000  4.516117e+000  6.000000e+000
    endloop
  endfacet
  facet normal -9.238795e-001 -3.826834e-001  -0.000000e+000
    outer loop
      vertex  2.366117e+000  4.516117e+000  3.000000e+000
      vertex  2.366117e+000  4.516117e+000  6.000000e+000
      vertex  2.000000e+000  5.400000e+000  3.000000e+000
    endloop
  endfacet
  facet normal -9.238795e-001 -3.826834e-001  0.000000e+000
    outer loop
      vertex  2.000000e+000  5.400000e+000  3.000000e+000
      vertex  2.366117e+000  4.516117e+000  6.000000e+000
      vertex  2.000000e+000  5.400000e+000  6.000000e+000
    endloop
  endfacet
  facet normal -9.238795e-001  3.826834e-001  0.000000e+000
    outer loop
      vertex  2.000000e+000  5.400000e+000  3.000000e+000
      vertex  2.000000e+000  5.400000e+000  6.000000e+000
      vertex  2.366117e+000  6.283884e+000  3.000000e+000
    endloop
  endfacet
  facet normal -9.238795e-001  3.826834e-001  0.000000e+000
    outer loop
      vertex  2.366117e+000  6.283884e+000  3.000000e+000
      vertex  2.000000e+000  5.400000e+000  6.000000e+000
      vertex  2.366117e+000  6.283884e+000  6.000000e+000
    endloop
  endfacet
  facet normal -3.826834e-001  9.238795e-001  0.000000e+000
    outer loop
      vertex  2.366117e+000  6.283884e+000  3.000000e+000
      vertex  2.366117e+000  6.283884e+000  6.000000e+000
      vertex  3.250000e+000  6.650000e+000  3.000000e+000
    endloop
  endfacet
  facet normal -3.826834e-001  9.238795e-001  0.000000e+000
    outer loop
      vertex  3.250000e+000  6.650000e+000  3.000000e+000
      vertex  2.366117e+000  6.283884e+000  6.000000e+000
      vertex  3.250000e+000  6.650000e+000  6.000000e+000
    endloop
  endfacet
  facet normal  3.826834e-001  9.238795e-001  0.000000e+000
    outer loop
      vertex  3.250000e+000  6.650000e+000  3.000000e+000
      vertex  3.250000e+000  6.650000e+000  6.000000e+000
      vertex  4.133883e+000  6.283884e+000  3.000000e+000
    endloop
  endfacet
  facet normal  3.826834e-001  9.238795e-001  -0.000000e+000
    outer loop
      vertex  4.133883e+000  6.283884e+000  3.000000e+000
      vertex  3.250000e+000  6.650000e+000  6.000000e+000
      vertex  4.133883e+000  6.283884e+000  6.000000e+000
    endloop
  endfacet
  facet normal  9.238795e-001  3.826834e-001  0.000000e+000
    outer loop
      vertex  4.133883e+000  6.283884e+000  3.000000e+000
      vertex  4.133883e+000  6.283884e+000  6.000000e+000
      vertex  4.500000e+000  5.400000e+000  3.000000e+000
    endloop
  endfacet
  facet normal  9.238795e-001  3.826834e-001  -0.000000e+000
    outer loop
      vertex  4.500000e+000  5.400000e+000  3.000000e+000
      vertex  4.133883e+000  6.283884e+000  6.000000e+000
      vertex  4.500000e+000  5.400000e+000  6.000000e+000
    endloop
  endfacet
  facet normal  0.000000e+000  0.000000e+000  1.000000e+000
    outer loop
      vertex  3.686612e+001  3.433883e+000  6.000000e+000
      vertex  3.863388e+001  3.433883e+000  6.000000e+000
      vertex  3.775000e+001  3.800000e+000  6.000000e+000
    endloop
  endfacet
  facet normal  -0.000000e+000  0.000000e+000  1.000000e+000
    outer loop
      vertex  3.863388e+001  3.433883e+000  6.000000e+000
      vertex  3.686612e+001  3.433883e+000  6.000000e+000
      vertex  3.900000e+001  2.550000e+000  6.000000e+000
    endloop
  endfacet
  facet normal  0.000000e+000  0.000000e+000  1.000000e+000
    outer loop
      vertex  3.900000e+001  2.550000e+000  6.000000e+000
      vertex  3.686612e+001  3.433883e+000  6.000000e+000
      vertex  3.650000e+001  2.550000e+000  6.000000e+000
    endloop
  endfacet
  facet normal  -0.000000e+000  0.000000e+000  1.000000e+000
    outer loop
      vertex  3.900000e+001  2.550000e+000  6.000000e+000
      vertex  3.650000e+001  2.550000e+000  6.000000e+000
      vertex  3.863388e+001  1.666116e+000  6.000000e+000
    endloop
  endfacet
  facet normal  0.000000e+000  0.000000e+000  1.000000e+000
    outer loop
      vertex  3.863388e+001  1.666116e+000  6.000000e+000
      vertex  3.650000e+001  2.550000e+000  6.000000e+000
      vertex  3.686612e+001  1.666116e+000  6.000000e+000
    endloop
  endfacet
  facet normal  -0.000000e+000  0.000000e+000  1.000000e+000
    outer loop
      vertex  3.863388e+001  1.666116e+000  6.000000e+000
      vertex  3.686612e+001  1.666116e+000  6.000000e+000
      vertex  3.775000e+001  1.300000e+000  6.000000e+000
    endloop
  endfacet
  facet normal  9.238799e-001 -3.826826e-001  0.000000e+000
    outer loop
      vertex  3.900000e+001  2.550000e+000  3.000000e+000
      vertex  3.900000e+001  2.550000e+000  6.000000e+000
      vertex  3.863388e+001  1.666116e+000  3.000000e+000
    endloop
  endfacet
  facet normal  9.238799e-001 -3.826826e-001  0.000000e+000
    outer loop
      vertex  3.863388e+001  1.666116e+000  3.000000e+000
      vertex  3.900000e+001  2.550000e+000  6.000000e+000
      vertex  3.863388e+001  1.666116e+000  6.000000e+000
    endloop
  endfacet
  facet normal  3.826831e-001 -9.238797e-001  0.000000e+000
    outer loop
      vertex  3.863388e+001  1.666116e+000  3.000000e+000
      vertex  3.863388e+001  1.666116e+000  6.000000e+000
      vertex  3.775000e+001  1.300000e+000  3.000000e+000
    endloop
  endfacet
  facet normal  3.826831e-001 -9.238797e-001  0.000000e+000
    outer loop
      vertex  3.775000e+001  1.300000e+000  3.000000e+000
      vertex  3.863388e+001  1.666116e+000  6.000000e+000
      vertex  3.775000e+001  1.300000e+000  6.000000e+000
    endloop
  endfacet
  facet normal -3.826831e-001 -9.238797e-001  -0.000000e+000
    outer loop
      vertex  3.775000e+001  1.300000e+000  3.000000e+000
      vertex  3.775000e+001  1.300000e+000  6.000000e+000
      vertex  3.686612e+001  1.666116e+000  3.000000e+000
    endloop
  endfacet
  facet normal -3.826831e-001 -9.238797e-001  0.000000e+000
    outer loop
      vertex  3.686612e+001  1.666116e+000  3.000000e+000
      vertex  3.775000e+001  1.300000e+000  6.000000e+000
      vertex  3.686612e+001  1.666116e+000  6.000000e+000
    endloop
  endfacet
  facet normal -9.238799e-001 -3.826826e-001  -0.000000e+000
    outer loop
      vertex  3.686612e+001  1.666116e+000  3.000000e+000
      vertex  3.686612e+001  1.666116e+000  6.000000e+000
      vertex  3.650000e+001  2.550000e+000  3.000000e+000
    endloop
  endfacet
  facet normal -9.238799e-001 -3.826826e-001  0.000000e+000
    outer loop
      vertex  3.650000e+001  2.550000e+000  3.000000e+000
      vertex  3.686612e+001  1.666116e+000  6.000000e+000
      vertex  3.650000e+001  2.550000e+000  6.000000e+000
    endloop
  endfacet
  facet normal -9.238799e-001  3.826826e-001  0.000000e+000
    outer loop
      vertex  3.650000e+001  2.550000e+000  3.000000e+000
      vertex  3.650000e+001  2.550000e+000  6.000000e+000
      vertex  3.686612e+001  3.433883e+000  3.000000e+000
    endloop
  endfacet
  facet normal -9.238799e-001  3.826826e-001  0.000000e+000
    outer loop
      vertex  3.686612e+001  3.433883e+000  3.000000e+000
      vertex  3.650000e+001  2.550000e+000  6.000000e+000
      vertex  3.686612e+001  3.433883e+000  6.000000e+000
    endloop
  endfacet
  facet normal -3.826831e-001  9.238797e-001  0.000000e+000
    outer loop
      vertex  3.686612e+001  3.433883e+000  3.000000e+000
      vertex  3.686612e+001  3.433883e+000  6.000000e+000
      vertex  3.775000e+001  3.800000e+000  3.000000e+000
    endloop
  endfacet
  facet normal -3.826831e-001  9.238797e-001  0.000000e+000
    outer loop
      vertex  3.775000e+001  3.800000e+000  3.000000e+000
      vertex  3.686612e+001  3.433883e+000  6.000000e+000
      vertex  3.775000e+001  3.800000e+000  6.000000e+000
    endloop
  endfacet
  facet normal  3.826831e-001  9.238797e-001  0.000000e+000
    outer loop
      vertex  3.775000e+001  3.800000e+000  3.000000e+000
      vertex  3.775000e+001  3.800000e+000  6.000000e+000
      vertex  3.863388e+001  3.433883e+000  3.000000e+000
    endloop
  endfacet
  facet normal  3.826831e-001  9.238797e-001  -0.000000e+000
    outer loop
      vertex  3.863388e+001  3.433883e+000  3.000000e+000
      vertex  3.775000e+001  3.800000e+000  6.000000e+000
      vertex  3.863388e+001  3.433883e+000  6.000000e+000
    endloop
  endfacet
  facet normal  9.238799e-001  3.826826e-001  0.000000e+000
    outer loop
      vertex  3.863388e+001  3.433883e+000  3.000000e+000
      vertex  3.863388e+001  3.433883e+000  6.000000e+000
      vertex  3.900000e+001  2.550000e+000  3.000000e+000
    endloop
  endfacet
  facet normal  9.238799e-001  3.826826e-001  -0.000000e+000
    outer loop
      vertex  3.900000e+001  2.550000e+000  3.000000e+000
      vertex  3.863388e+001  3.433883e+000  6.000000e+000
      vertex  3.900000e+001  2.550000e+000  6.000000e+000
    endloop
  endfacet
  facet normal  0.000000e+000  0.000000e+000  1.000000e+000
    outer loop
      vertex  2.516117e+000  7.683389e+001  6.000000e+000
      vertex  4.283884e+000  7.683389e+001  6.000000e+000
      vertex  3.400000e+000  7.720000e+001  6.000000e+000
    endloop
  endfacet
  facet normal  -0.000000e+000  0.000000e+000  1.000000e+000
    outer loop
      vertex  4.283884e+000  7.683389e+001  6.000000e+000
      vertex  2.516117e+000  7.683389e+001  6.000000e+000
      vertex  4.650000e+000  7.595000e+001  6.000000e+000
    endloop
  endfacet
  facet normal  0.000000e+000  0.000000e+000  1.000000e+000
    outer loop
      vertex  4.650000e+000  7.595000e+001  6.000000e+000
      vertex  2.516117e+000  7.683389e+001  6.000000e+000
      vertex  2.150000e+000  7.595000e+001  6.000000e+000
    endloop
  endfacet
  facet normal  -0.000000e+000  0.000000e+000  1.000000e+000
    outer loop
      vertex  4.650000e+000  7.595000e+001  6.000000e+000
      vertex  2.150000e+000  7.595000e+001  6.000000e+000
      vertex  4.283884e+000  7.506612e+001  6.000000e+000
    endloop
  endfacet
  facet normal  0.000000e+000  0.000000e+000  1.000000e+000
    outer loop
      vertex  4.283884e+000  7.506612e+001  6.000000e+000
      vertex  2.150000e+000  7.595000e+001  6.000000e+000
      vertex  2.516117e+000  7.506612e+001  6.000000e+000
    endloop
  endfacet
  facet normal  -0.000000e+000  0.000000e+000  1.000000e+000
    outer loop
      vertex  4.283884e+000  7.506612e+001  6.000000e+000
      vertex  2.516117e+000  7.506612e+001  6.000000e+000
      vertex  3.400000e+000  7.470000e+001  6.000000e+000
    endloop
  endfacet
  facet normal  9.238790e-001 -3.826845e-001  0.000000e+000
    outer loop
      vertex  4.650000e+000  7.595000e+001  3.000000e+000
      vertex  4.650000e+000  7.595000e+001  6.000000e+000
      vertex  4.283884e+000  7.506612e+001  3.000000e+000
    endloop
  endfacet
  facet normal  9.238790e-001 -3.826845e-001  0.000000e+000
    outer loop
      vertex  4.283884e+000  7.506612e+001  3.000000e+000
      vertex  4.650000e+000  7.595000e+001  6.000000e+000
      vertex  4.283884e+000  7.506612e+001  6.000000e+000
    endloop
  endfacet
  facet normal  3.826860e-001 -9.238786e-001  0.000000e+000
    outer loop
      vertex  4.283884e+000  7.506612e+001  3.000000e+000
      vertex  4.283884e+000  7.506612e+001  6.000000e+000
      vertex  3.400000e+000  7.470000e+001  3.000000e+000
    endloop
  endfacet
  facet normal  3.826860e-001 -9.238786e-001  0.000000e+000
    outer loop
      vertex  3.400000e+000  7.470000e+001  3.000000e+000
      vertex  4.283884e+000  7.506612e+001  6.000000e+000
      vertex  3.400000e+000  7.470000e+001  6.000000e+000
    endloop
  endfacet
  facet normal -3.826860e-001 -9.238786e-001  -0.000000e+000
    outer loop
      vertex  3.400000e+000  7.470000e+001  3.000000e+000
      vertex  3.400000e+000  7.470000e+001  6.000000e+000
      vertex  2.516117e+000  7.506612e+001  3.000000e+000
    endloop
  endfacet
  facet normal -3.826860e-001 -9.238786e-001  0.000000e+000
    outer loop
      vertex  2.516117e+000  7.506612e+001  3.000000e+000
      vertex  3.400000e+000  7.470000e+001  6.000000e+000
      vertex  2.516117e+000  7.506612e+001  6.000000e+000
    endloop
  endfacet
  facet normal -9.238790e-001 -3.826845e-001  -0.000000e+000
    outer loop
      vertex  2.516117e+000  7.506612e+001  3.000000e+000
      vertex  2.516117e+000  7.506612e+001  6.000000e+000
      vertex  2.150000e+000  7.595000e+001  3.000000e+000
    endloop
  endfacet
  facet normal -9.238790e-001 -3.826845e-001  0.000000e+000
    outer loop
      vertex  2.150000e+000  7.595000e+001  3.000000e+000
      vertex  2.516117e+000  7.506612e+001  6.000000e+000
      vertex  2.150000e+000  7.595000e+001  6.000000e+000
    endloop
  endfacet
  facet normal -9.238803e-001  3.826817e-001  0.000000e+000
    outer loop
      vertex  2.150000e+000  7.595000e+001  3.000000e+000
      vertex  2.150000e+000  7.595000e+001  6.000000e+000
      vertex  2.516117e+000  7.683389e+001  3.000000e+000
    endloop
  endfacet
  facet normal -9.238803e-001  3.826817e-001  0.000000e+000
    outer loop
      vertex  2.516117e+000  7.683389e+001  3.000000e+000
      vertex  2.150000e+000  7.595000e+001  6.000000e+000
      vertex  2.516117e+000  7.683389e+001  6.000000e+000
    endloop
  endfacet
  facet normal -3.826792e-001  9.238813e-001  0.000000e+000
    outer loop
      vertex  2.516117e+000  7.683389e+001  3.000000e+000
      vertex  2.516117e+000  7.683389e+001  6.000000e+000
      vertex  3.400000e+000  7.720000e+001  3.000000e+000
    endloop
  endfacet
  facet normal -3.826792e-001  9.238813e-001  0.000000e+000
    outer loop
      vertex  3.400000e+000  7.720000e+001  3.000000e+000
      vertex  2.516117e+000  7.683389e+001  6.000000e+000
      vertex  3.400000e+000  7.720000e+001  6.000000e+000
    endloop
  endfacet
  facet normal  3.826792e-001  9.238813e-001  0.000000e+000
    outer loop
      vertex  3.400000e+000  7.720000e+001  3.000000e+000
      vertex  3.400000e+000  7.720000e+001  6.000000e+000
      vertex  4.283884e+000  7.683389e+001  3.000000e+000
    endloop
  endfacet
  facet normal  3.826792e-001  9.238813e-001  -0.000000e+000
    outer loop
      vertex  4.283884e+000  7.683389e+001  3.000000e+000
      vertex  3.400000e+000  7.720000e+001  6.000000e+000
      vertex  4.283884e+000  7.683389e+001  6.000000e+000
    endloop
  endfacet
  facet normal  9.238803e-001  3.826817e-001  0.000000e+000
    outer loop
      vertex  4.283884e+000  7.683389e+001  3.000000e+000
      vertex  4.283884e+000  7.683389e+001  6.000000e+000
      vertex  4.650000e+000  7.595000e+001  3.000000e+000
    endloop
  endfacet
  facet normal  9.238803e-001  3.826817e-001  -0.000000e+000
    outer loop
      vertex  4.650000e+000  7.595000e+001  3.000000e+000
      vertex  4.283884e+000  7.683389e+001  6.000000e+000
      vertex  4.650000e+000  7.595000e+001  6.000000e+000
    endloop
  endfacet
  facet normal  1.000000e+000  -0.000000e+000  0.000000e+000
    outer loop
      vertex  6.000000e+000  1.801600e+001  3.000000e+000
      vertex  6.000000e+000  5.015995e+000  3.000000e+000
      vertex  6.000000e+000  1.801600e+001  0.000000e+000
    endloop
  endfacet
  facet normal  1.000000e+000  0.000000e+000  0.000000e+000
    outer loop
      vertex  6.000000e+000  1.801600e+001  0.000000e+000
      vertex  6.000000e+000  5.015995e+000  3.000000e+000
      vertex  6.000000e+000  5.015995e+000  0.000000e+000
    endloop
  endfacet
  facet normal  0.000000e+000  1.000000e+000  0.000000e+000
    outer loop
      vertex  6.000000e+000  1.801600e+001  0.000000e+000
      vertex  3.000000e+000  1.801600e+001  0.000000e+000
      vertex  6.000000e+000  1.801600e+001  3.000000e+000
    endloop
  endfacet
  facet normal  0.000000e+000  1.000000e+000  0.000000e+000
    outer loop
      vertex  6.000000e+000  1.801600e+001  3.000000e+000
      vertex  3.000000e+000  1.801600e+001  0.000000e+000
      vertex  3.000000e+000  1.801600e+001  3.000000e+000
    endloop
  endfacet
  facet normal  1.000000e+000  0.000000e+000  0.000000e+000
    outer loop
      vertex  3.000000e+000  1.801600e+001  3.000000e+000
      vertex  3.000000e+000  1.801600e+001  0.000000e+000
      vertex  3.000000e+000  2.401600e+001  3.000000e+000
    endloop
  endfacet
  facet normal  1.000000e+000  0.000000e+000  0.000000e+000
    outer loop
      vertex  3.000000e+000  2.401600e+001  3.000000e+000
      vertex  3.000000e+000  1.801600e+001  0.000000e+000
      vertex  3.000000e+000  2.401600e+001  0.000000e+000
    endloop
  endfacet
  facet normal  0.000000e+000 -1.000000e+000  0.000000e+000
    outer loop
      vertex  3.000000e+000  2.401600e+001  0.000000e+000
      vertex  6.000000e+000  2.401600e+001  0.000000e+000
      vertex  3.000000e+000  2.401600e+001  3.000000e+000
    endloop
  endfacet
  facet normal  0.000000e+000 -1.000000e+000  0.000000e+000
    outer loop
      vertex  3.000000e+000  2.401600e+001  3.000000e+000
      vertex  6.000000e+000  2.401600e+001  0.000000e+000
      vertex  6.000000e+000  2.401600e+001  3.000000e+000
    endloop
  endfacet
  facet normal  1.000000e+000  -0.000000e+000  0.000000e+000
    outer loop
      vertex  6.000000e+000  3.701600e+001  3.000000e+000
      vertex  6.000000e+000  2.401600e+001  3.000000e+000
      vertex  6.000000e+000  3.701600e+001  0.000000e+000
    endloop
  endfacet
  facet normal  1.000000e+000  0.000000e+000  0.000000e+000
    outer loop
      vertex  6.000000e+000  3.701600e+001  0.000000e+000
      vertex  6.000000e+000  2.401600e+001  3.000000e+000
      vertex  6.000000e+000  2.401600e+001  0.000000e+000
    endloop
  endfacet
  facet normal  0.000000e+000  1.000000e+000  0.000000e+000
    outer loop
      vertex  6.000000e+000  3.701600e+001  0.000000e+000
      vertex  5.000000e+000  3.701600e+001  0.000000e+000
      vertex  6.000000e+000  3.701600e+001  3.000000e+000
    endloop
  endfacet
  facet normal  0.000000e+000  1.000000e+000  0.000000e+000
    outer loop
      vertex  6.000000e+000  3.701600e+001  3.000000e+000
      vertex  5.000000e+000  3.701600e+001  0.000000e+000
      vertex  5.000000e+000  3.701600e+001  3.000000e+000
    endloop
  endfacet
  facet normal  1.000000e+000  0.000000e+000  0.000000e+000
    outer loop
      vertex  5.000000e+000  3.701600e+001  3.000000e+000
      vertex  5.000000e+000  3.701600e+001  0.000000e+000
      vertex  5.000000e+000  4.338556e+001  3.000000e+000
    endloop
  endfacet
  facet normal  1.000000e+000  0.000000e+000  0.000000e+000
    outer loop
      vertex  5.000000e+000  4.338556e+001  3.000000e+000
      vertex  5.000000e+000  3.701600e+001  0.000000e+000
      vertex  5.000000e+000  4.338556e+001  0.000000e+000
    endloop
  endfacet
  facet normal  0.000000e+000  1.000000e+000  -0.000000e+000
    outer loop
      vertex  5.000000e+000  4.338556e+001  3.000000e+000
      vertex  5.000000e+000  4.338556e+001  0.000000e+000
      vertex  1.500000e+000  4.338556e+001  3.000000e+000
    endloop
  endfacet
  facet normal  0.000000e+000  1.000000e+000  0.000000e+000
    outer loop
      vertex  1.500000e+000  4.338556e+001  3.000000e+000
      vertex  5.000000e+000  4.338556e+001  0.000000e+000
      vertex  1.500000e+000  4.338556e+001  0.000000e+000
    endloop
  endfacet
  facet normal  1.000000e+000  0.000000e+000  0.000000e+000
    outer loop
      vertex  1.500000e+000  4.338556e+001  3.000000e+000
      vertex  1.500000e+000  4.338556e+001  0.000000e+000
      vertex  1.500000e+000  4.688556e+001  3.000000e+000
    endloop
  endfacet
  facet normal  1.000000e+000  0.000000e+000  0.000000e+000
    outer loop
      vertex  1.500000e+000  4.688556e+001  3.000000e+000
      vertex  1.500000e+000  4.338556e+001  0.000000e+000
      vertex  1.500000e+000  4.688556e+001  0.000000e+000
    endloop
  endfacet
  facet normal  0.000000e+000 -1.000000e+000  0.000000e+000
    outer loop
      vertex  1.500000e+000  4.688556e+001  3.000000e+000
      vertex  1.500000e+000  4.688556e+001  0.000000e+000
      vertex  6.000000e+000  4.688556e+001  3.000000e+000
    endloop
  endfacet
  facet normal  0.000000e+000 -1.000000e+000  -0.000000e+000
    outer loop
      vertex  6.000000e+000  4.688556e+001  3.000000e+000
      vertex  1.500000e+000  4.688556e+001  0.000000e+000
      vertex  6.000000e+000  4.688556e+001  0.000000e+000
    endloop
  endfacet
  facet normal  1.000000e+000  -0.000000e+000  0.000000e+000
    outer loop
      vertex  6.000000e+000  6.588556e+001  3.000000e+000
      vertex  6.000000e+000  4.688556e+001  3.000000e+000
      vertex  6.000000e+000  6.588556e+001  0.000000e+000
    endloop
  endfacet
  facet normal  1.000000e+000  0.000000e+000  0.000000e+000
    outer loop
      vertex  6.000000e+000  6.588556e+001  0.000000e+000
      vertex  6.000000e+000  4.688556e+001  3.000000e+000
      vertex  6.000000e+000  4.688556e+001  0.000000e+000
    endloop
  endfacet
  facet normal -8.802502e-001 -4.745099e-001  0.000000e+000
    outer loop
      vertex  3.450000e+001  1.301600e+001  3.000000e+000
      vertex  6.000000e+000  6.588556e+001  3.000000e+000
      vertex  3.450000e+001  1.301600e+001  0.000000e+000
    endloop
  endfacet
  facet normal -8.802502e-001 -4.745099e-001  0.000000e+000
    outer loop
      vertex  3.450000e+001  1.301600e+001  0.000000e+000
      vertex  6.000000e+000  6.588556e+001  3.000000e+000
      vertex  6.000000e+000  6.588556e+001  0.000000e+000
    endloop
  endfacet
  facet normal -1.000000e+000  -0.000000e+000  0.000000e+000
    outer loop
      vertex  3.450000e+001  5.015995e+000  3.000000e+000
      vertex  3.450000e+001  1.301600e+001  3.000000e+000
      vertex  3.450000e+001  5.015995e+000  0.000000e+000
    endloop
  endfacet
  facet normal -1.000000e+000  0.000000e+000  0.000000e+000
    outer loop
      vertex  3.450000e+001  5.015995e+000  0.000000e+000
      vertex  3.450000e+001  1.301600e+001  3.000000e+000
      vertex  3.450000e+001  1.301600e+001  0.000000e+000
    endloop
  endfacet
  facet normal  0.000000e+000  1.000000e+000  0.000000e+000
    outer loop
      vertex  6.000000e+000  5.015995e+000  3.000000e+000
      vertex  3.450000e+001  5.015995e+000  3.000000e+000
      vertex  6.000000e+000  5.015995e+000  0.000000e+000
    endloop
  endfacet
  facet normal  0.000000e+000  1.000000e+000  0.000000e+000
    outer loop
      vertex  6.000000e+000  5.015995e+000  0.000000e+000
      vertex  3.450000e+001  5.015995e+000  3.000000e+000
      vertex  3.450000e+001  5.015995e+000  0.000000e+000
    endloop
  endfacet
  facet normal  0.000000e+000  1.000000e+000  -0.000000e+000
    outer loop
      vertex  6.000000e+000  7.900000e+001  3.000000e+000
      vertex  6.000000e+000  7.900000e+001  0.000000e+000
      vertex  0.000000e+000  7.900000e+001  3.000000e+000
    endloop
  endfacet
  facet normal  0.000000e+000  1.000000e+000  0.000000e+000
    outer loop
      vertex  0.000000e+000  7.900000e+001  3.000000e+000
      vertex  6.000000e+000  7.900000e+001  0.000000e+000
      vertex  0.000000e+000  7.900000e+001  0.000000e+000
    endloop
  endfacet
  facet normal  8.802501e-001  4.745098e-001  -0.000000e+000
    outer loop
      vertex  4.050000e+001  1.500000e+001  3.000000e+000
      vertex  4.050000e+001  1.500000e+001  0.000000e+000
      vertex  6.000000e+000  7.900000e+001  3.000000e+000
    endloop
  endfacet
  facet normal  8.802501e-001  4.745098e-001  0.000000e+000
    outer loop
      vertex  6.000000e+000  7.900000e+001  3.000000e+000
      vertex  4.050000e+001  1.500000e+001  0.000000e+000
      vertex  6.000000e+000  7.900000e+001  0.000000e+000
    endloop
  endfacet
  facet normal  1.000000e+000  0.000000e+000  0.000000e+000
    outer loop
      vertex  4.050000e+001  0.000000e+000  3.000000e+000
      vertex  4.050000e+001  0.000000e+000  0.000000e+000
      vertex  4.050000e+001  1.500000e+001  3.000000e+000
    endloop
  endfacet
  facet normal  1.000000e+000  0.000000e+000  0.000000e+000
    outer loop
      vertex  4.050000e+001  1.500000e+001  3.000000e+000
      vertex  4.050000e+001  0.000000e+000  0.000000e+000
      vertex  4.050000e+001  1.500000e+001  0.000000e+000
    endloop
  endfacet
endsolid CATIA STL
